<?xml version="1.0" standalone="no"?>
<!DOCTYPE svg PUBLIC "-//W3C//DTD SVG 1.1//EN" "http://www.w3.org/Graphics/SVG/1.1/DTD/svg11.dtd" >
<svg xmlns="http://www.w3.org/2000/svg">
<metadata>
This is a custom SVG webfont generated by Font Squirrel.
Copyright   : c Copyright 1998 The Font Bureau Inc Designed by David Berlow All Rights Reserved
Foundry     : The Font Bureau Inc
</metadata>
<defs>
<font id="Belizio-Black" horiz-adv-x="1726" >
<font-face units-per-em="2048" ascent="1628" descent="-420" />
<missing-glyph horiz-adv-x="727" />
<glyph unicode=" "  horiz-adv-x="727" />
<glyph unicode="&#x09;" horiz-adv-x="727" />
<glyph unicode="&#xa0;" horiz-adv-x="727" />
<glyph unicode="!" horiz-adv-x="884" d="M188 250q0 102 83 173t192 71q102 0 179 -78t77 -184.5t-76 -180.5t-184 -74q-111 0 -191 80t-80 193zM238 1329q0 125 58 204t165 79q109 0 167 -79t58 -204q0 -23 -1 -46t-5 -49t-6 -45.5t-8.5 -49t-9.5 -44t-12 -49l-12 -46t-14.5 -51.5t-13.5 -48q-33 -123 -33 -323 h-217q-4 223 -32 323q-4 12 -17.5 59.5t-17.5 63.5l-15 57q-10 41 -14 64.5t-10 58.5t-8 64.5t-2 60.5z" />
<glyph unicode="&#x22;" horiz-adv-x="1171" d="M145 1399q0 86 54.5 143t136.5 57q80 0 134 -57t54 -143q0 -123 -49 -312q-33 -127 -33 -260h-211q0 135 -34 260q-52 183 -52 312zM635 1399q0 88 53 144t135 56q80 0 134.5 -56t54.5 -144q0 -123 -49 -312q-35 -135 -35 -260h-209q0 135 -35 260q-49 177 -49 312z" />
<glyph unicode="#" horiz-adv-x="1914" d="M158 485v203h417l97 209h-383v207h475l215 473h207l-217 -473h256l217 473h211l-219 -473h329v-207h-422l-96 -209h389v-203h-483l-221 -485h-207l221 485h-258l-219 -485h-203l221 485h-327zM780 688h256l97 209h-259z" />
<glyph unicode="$" horiz-adv-x="1466" d="M55 410q0 109 70 174t172 65q82 0 140.5 -48t58.5 -116q0 -61 -23.5 -96t-81.5 -61q37 -104 232 -121v395l-76 12q-231 37 -351 158t-120 307q0 207 154.5 335t392.5 151v102h208v-102q248 -20 385.5 -119.5t137.5 -243.5q0 -117 -60.5 -178t-169.5 -61q-96 0 -150 50 t-54 124q0 51 19 87t77 68q-45 57 -185 78v-371l80 -14q231 -41 359.5 -155.5t128.5 -282.5q0 -252 -148.5 -389.5t-419.5 -161.5v-256h-208v252q-238 18 -403 133t-165 285zM432 1200q0 -70 47 -104.5t144 -55.5v328q-92 -18 -141.5 -70.5t-49.5 -97.5zM831 213 q180 35 181 184q0 131 -181 166v-350z" />
<glyph unicode="%" horiz-adv-x="2074" d="M14 1087q0 213 126 350.5t309 137.5q180 0 302.5 -139.5t122.5 -327.5q0 -209 -124.5 -354.5t-309.5 -145.5q-182 0 -304 142t-122 337zM348 1092q0 -158 18.5 -224.5t75.5 -66.5q63 0 79 67.5t16 223.5q0 59 -1 89.5t-3.5 70.5t-8.5 58.5t-16 37t-26.5 25.5t-39.5 7 q-57 0 -75.5 -70.5t-18.5 -217.5zM573 0l717 1577h215l-719 -1577h-213zM1200 469q0 213 127 350t311 137q180 0 301 -139t121 -330q0 -207 -125 -352t-309 -145q-180 0 -303 141t-123 338zM1536 473q0 -158 17.5 -224.5t74.5 -66.5q23 0 40.5 8.5t27.5 30t16 42t8 59 t3 68.5t1 83q0 88 -2 130t-11 85t-28.5 58.5t-54.5 15.5q-55 0 -73.5 -72t-18.5 -217z" />
<glyph unicode="&#x26;" horiz-adv-x="2158" d="M25 508q0 211 150.5 339t410.5 169q-12 61 -13 131q0 190 133.5 328.5t352.5 138.5q180 0 295.5 -89t115.5 -237q0 -274 -401 -332q57 -115 131 -225q12 -18 22.5 -32.5t22.5 -30t19.5 -25.5t21.5 -25.5t19.5 -21.5t24 -23.5t22.5 -21.5t26.5 -25.5t26.5 -25.5 q27 20 46 55t19 59q0 63 -81 68l-82 4v219h618v-227l-117 -4q-39 -2 -62.5 -26.5t-47.5 -88.5q-68 -168 -123 -231q76 -55 162 -56q61 0 113.5 64.5t52.5 148.5v54h231v-54q0 -231 -141.5 -378.5t-382.5 -147.5q-104 0 -211 32t-176 77q-197 -88 -480 -88q-197 0 -356.5 57 t-260.5 180t-101 291zM500 575q0 -147 110.5 -241t278.5 -94q61 0 102 8q-119 100 -213 253.5t-139 307.5q-55 -35 -97 -98.5t-42 -135.5zM944 1298q0 -98 41 -159q20 10 51 26.5t82 62.5t51 87t-28.5 65.5t-71.5 24.5q-49 0 -87 -30t-38 -77z" />
<glyph unicode="'" horiz-adv-x="671" d="M135 1380q0 76 62.5 137.5t142.5 61.5t141.5 -59.5t61.5 -139.5q0 -127 -56 -311q-37 -125 -36 -262h-222q0 131 -36 262q-58 205 -58 311z" />
<glyph unicode="(" horiz-adv-x="999" d="M111 709q0 305 185 546.5t495 358.5l104 -139q-74 -49 -127 -125t-81 -154t-44 -178t-20.5 -173t-4.5 -165q0 -18 -1 -88t0 -97.5t5.5 -93t14.5 -101.5t30.5 -94.5t49 -99t73 -89t101.5 -89.5l-105 -153q-354 170 -514.5 395.5t-160.5 538.5z" />
<glyph unicode=")" horiz-adv-x="999" d="M104 1475l107 139q307 -117 492.5 -359.5t185.5 -545.5q0 -313 -161 -538.5t-515 -395.5l-104 153q57 41 101 89.5t72.5 89t49 99t31 94.5t14.5 101.5t5 93t0 97.5t-1 88q0 119 -8 211t-33 213t-84.5 216.5t-151.5 154.5z" />
<glyph unicode="*" horiz-adv-x="1081" d="M33 1126l104 328l162 -53l-12 -45q-4 -18 24 -29l125 -41v127q0 31 -22 31l-45 2v168h344v-168l-45 -2q-23 0 -23 -31v-127l123 41q33 10 27 29l-13 45l162 53l105 -328l-162 -53l-15 41q-4 16 -36 10l-125 -39l75 -102q18 -27 35 -16l41 26l96 -137l-276 -199l-100 138 l36 24q8 4 10.5 9.5t1.5 8.5t-7.5 10t-8.5 9l-73 107l-76 -107q-4 -6 -6 -19.5t2 -17.5l39 -24l-101 -138l-276 199l96 137l39 -26q16 -12 35 16l76 102l-123 39q-31 10 -37 -10l-14 -41z" />
<glyph unicode="+" horiz-adv-x="1458" d="M156 571v293h438v453h299v-453h436v-293h-436v-465h-299v465h-438z" />
<glyph unicode="," horiz-adv-x="794" d="M84 -123h53q78 0 125 33t47 82q0 25 -28 43l-37 22q-49 31 -70.5 48.5t-37 51t-15.5 87.5q0 94 68.5 160.5t187.5 66.5q127 0 210 -88t83 -219q0 -227 -133.5 -351t-362.5 -124h-90v188z" />
<glyph unicode="-" horiz-adv-x="985" d="M160 401v420h665v-420h-665z" />
<glyph unicode="." horiz-adv-x="794" d="M139 227.5q0 106.5 76 182t182.5 75.5t181 -75.5t74.5 -182t-74.5 -180.5t-181.5 -74q-109 0 -183.5 74t-74.5 180.5z" />
<glyph unicode="/" horiz-adv-x="995" d="M0 0l754 1577h241l-755 -1577h-240z" />
<glyph unicode="0" horiz-adv-x="1550" d="M57 743q0 233 89.5 428t262.5 314t400 119q319 0 501.5 -231.5t182.5 -616.5q0 -344 -203 -563.5t-545 -219.5q-313 0 -500.5 220t-187.5 550zM584 758q0 -315 39 -435t149.5 -120t149.5 121.5t39 433.5q0 348 -36 479t-153 131q-121 0 -154.5 -126t-33.5 -484z" />
<glyph unicode="1" horiz-adv-x="1267" d="M86 852v256q203 23 335 154t165 315h379v-1253q0 -59 23.5 -85t80.5 -26h164v-213h-1071v213h215q57 0 81.5 25.5t24.5 85.5v704q-47 -82 -157.5 -129t-239.5 -47z" />
<glyph unicode="2" horiz-adv-x="1466" d="M88 1186q0 184 172 301t457 117q317 0 479 -115t162 -338q0 -180 -124 -291.5t-415 -200.5q-76 -23 -184 -61q-127 -49 -210 -141t-83 -205v-41q35 129 132 201.5t239 72.5q90 0 200 -55q49 -25 66.5 -33t44.5 -14t57 -6q74 0 74 88v88h238v-191q0 -176 -93.5 -282.5 t-259.5 -106.5q-139 0 -284 80q-152 84 -246 84q-51 0 -92 -39t-41 -98h-281v233q0 133 77 268.5t241 241.5q94 61 149 93q145 88 197.5 160.5t52.5 183.5q0 203 -186 202q-127 0 -162 -102l27 -2q68 -6 110.5 -60.5t42.5 -123.5q0 -102 -71.5 -165t-180.5 -63 q-143 0 -224 83t-81 237z" />
<glyph unicode="3" horiz-adv-x="1466" d="M53 401q0 143 76 222t193 79q113 0 179 -53t66 -151q0 -78 -33.5 -126t-117.5 -67q41 -102 215 -102q104 0 163.5 61.5t59.5 188.5q0 236 -184 235h-90v223h88q90 0 138 48.5t48 177.5q0 139 -57.5 197.5t-165.5 58.5q-158 0 -195 -105q158 -27 158 -170 q0 -100 -69.5 -153.5t-166.5 -53.5q-119 0 -196.5 69t-77.5 214q0 178 181 294t460 116q297 0 468 -107.5t171 -312.5q0 -166 -99.5 -257t-301.5 -116q199 -8 316.5 -105.5t117.5 -265.5q0 -217 -183.5 -342t-541.5 -125q-301 0 -460 122t-159 306z" />
<glyph unicode="4" horiz-adv-x="1593" d="M84 418v293l770 866h385v-920h236v-239h-236v-96q0 -59 23.5 -84t80.5 -25h121v-213h-1018v213h205q57 0 82 24.5t25 84.5v96h-674zM350 657h416v469z" />
<glyph unicode="5" horiz-adv-x="1409" d="M51 397q0 141 77 208t187 67q113 0 178.5 -57.5t65.5 -157.5q0 -131 -131 -174q12 -47 58 -72t98 -25q115 0 165 87t50 270q0 164 -48.5 236.5t-156.5 72.5q-68 0 -105.5 -27.5t-44.5 -60.5h-290l88 827h155q145 -70 449 -69q115 0 216 15t159.5 29.5t68.5 14.5 q29 0 29 -29q0 -25 -37 -82t-96 -116q-94 -94 -220 -138.5t-321 -44.5q-152 0 -205 29l-28 -248q35 53 130 85t203 32q252 0 417 -139t165 -406q0 -254 -178 -402.5t-471 -148.5q-289 0 -458 112.5t-169 311.5z" />
<glyph unicode="6" horiz-adv-x="1482" d="M68 739q0 215 63.5 383t173 271.5t247.5 157t296 53.5q223 0 363.5 -107.5t140.5 -251.5q0 -250 -252 -250q-106 0 -169 55.5t-63 141.5q0 53 16.5 83t53.5 58q-33 51 -135 51q-227 0 -228 -407q0 -84 7 -111q37 51 117.5 88t179.5 37q233 0 385.5 -131t152.5 -342 q0 -238 -187.5 -391.5t-459.5 -153.5q-139 0 -256 43t-197.5 116t-138 171t-84 208.5t-26.5 227.5zM590 477q0 -162 41 -224.5t131 -62.5q88 0 133 62.5t45 216.5q0 152 -43 216.5t-131 64.5q-94 0 -135 -59.5t-41 -213.5z" />
<glyph unicode="7" horiz-adv-x="1437" d="M66 897v233q0 219 87 350.5t259 131.5q80 0 153.5 -29t118.5 -64.5t100.5 -64.5t104.5 -29q127 0 127 170h293q27 -35 51 -127t24 -161q0 -305 -200 -486q-92 -84 -143.5 -221t-59.5 -285q-8 -158 -69.5 -248t-219.5 -90q-123 0 -198.5 73t-75.5 208q0 123 56 228.5 t183 224.5q20 18 87 70.5t90 64.5q172 104 242.5 199.5t70.5 240.5q0 47 -29 96q-12 -176 -125.5 -274t-251.5 -98q-74 0 -145.5 38.5t-125.5 77.5t-87 39q-80 0 -80 -96v-172h-237z" />
<glyph unicode="8" horiz-adv-x="1480" d="M68 383q0 109 70.5 200t228.5 175q-233 121 -234 379q0 227 175 347t450 120q283 0 452.5 -99.5t169.5 -294.5q0 -104 -50 -183t-181 -153q264 -152 264 -401q0 -158 -97 -273.5t-250 -171t-339 -55.5q-295 0 -477 107.5t-182 302.5zM438 393q0 -82 72 -131t178 -49 q115 0 179.5 47t64.5 137q0 111 -162 176q-123 49 -160 50q-51 0 -111.5 -70t-60.5 -160zM565 1229q0 -16 5 -31.5t11.5 -26t20.5 -23.5t22.5 -19.5t29 -18.5t27.5 -16t31.5 -15.5t28.5 -13.5q94 -47 133 -47q41 0 72 54t31 124q0 84 -57.5 132t-159.5 48 q-80 0 -137.5 -37.5t-57.5 -109.5z" />
<glyph unicode="9" horiz-adv-x="1511" d="M61 1065q0 236 201 387.5t477 151.5q309 0 507 -204t198 -554q0 -236 -63.5 -409t-176 -272t-250 -145.5t-305.5 -46.5q-258 0 -394 97.5t-136 255.5q0 119 76.5 177t181.5 58q94 0 154.5 -54t60.5 -138q0 -106 -82 -138q29 -57 133 -57q147 0 217 98.5t70 307.5 q0 55 -6 122q-41 -49 -127 -85.5t-179 -36.5q-258 0 -407.5 123.5t-149.5 361.5zM539 1094q0 -287 180 -287q131 0 171 62.5t40 220.5q0 285 -195 284q-113 0 -154.5 -71.5t-41.5 -208.5z" />
<glyph unicode=":" horiz-adv-x="835" d="M156 242q0 102 81.5 172.5t188.5 70.5q102 0 178 -76.5t76 -183.5q0 -104 -76 -178t-180 -74q-117 0 -192.5 78t-75.5 191zM158 836q0 102 80.5 171.5t187.5 69.5q102 0 179 -76.5t77 -181t-76 -179.5t-180 -75q-111 0 -189.5 80t-78.5 191z" />
<glyph unicode=";" horiz-adv-x="835" d="M119 -123h55q78 0 124 33t46 82q0 25 -29 43l-36 22q-49 31 -71 48.5t-37 51t-15 87.5q0 94 69.5 160.5t186.5 66.5q127 0 210 -88t83 -219q0 -227 -133.5 -351t-360.5 -124h-92v188zM156 836q0 102 79.5 171.5t190.5 69.5q102 0 177 -76.5t75 -181t-75 -179.5t-181 -75 q-111 0 -188.5 79t-77.5 192z" />
<glyph unicode="&#x37e;" horiz-adv-x="835" d="M119 -123h55q78 0 124 33t46 82q0 25 -29 43l-36 22q-49 31 -71 48.5t-37 51t-15 87.5q0 94 69.5 160.5t186.5 66.5q127 0 210 -88t83 -219q0 -227 -133.5 -351t-360.5 -124h-92v188zM156 836q0 102 79.5 171.5t190.5 69.5q102 0 177 -76.5t75 -181t-75 -179.5t-181 -75 q-111 0 -188.5 79t-77.5 192z" />
<glyph unicode="&#x3c;" horiz-adv-x="1458" d="M289 606v187l741 585l168 -227l-557 -432l557 -395l-168 -265z" />
<glyph unicode="=" horiz-adv-x="1458" d="M211 338v285h1069v-285h-1069zM211 762v287h1069v-287h-1069z" />
<glyph unicode="&#x3e;" horiz-adv-x="1458" d="M260 285l539 395l-539 432l168 266l743 -585v-187l-743 -547z" />
<glyph unicode="?" horiz-adv-x="1316" d="M72 1206q0 182 152.5 290t392 108t409.5 -113t170 -305q0 -256 -240 -348q-276 -109 -276 -254v-52h-248v89q0 211 203 354q102 74 102 239q0 84 -45 137.5t-125 53.5q-61 0 -98 -29.5t-45 -75.5q84 -6 129 -53t45 -125q0 -102 -69.5 -159.5t-174.5 -57.5 q-119 0 -200.5 79t-81.5 222zM293 233q0 102 83 172t191 70q104 0 179 -74.5t75 -181.5q0 -102 -74.5 -174t-183.5 -72q-111 0 -190.5 75.5t-79.5 184.5z" />
<glyph unicode="@" horiz-adv-x="2111" d="M96 676q0 399 281.5 663.5t740.5 264.5q176 0 336 -47.5t286 -136.5t199.5 -229t73.5 -312q0 -274 -155.5 -471t-370.5 -197q-109 0 -170.5 44t-54.5 114q-82 -164 -326 -164q-201 0 -322.5 117.5t-121.5 304.5q0 260 146 423.5t378 163.5q147 0 239 -90l39 72h291 l-127 -633q-29 -150 64 -149q102 0 183 131t81 327q0 244 -190.5 389.5t-477.5 145.5q-326 0 -554 -200.5t-228 -538.5q0 -305 206 -491.5t517 -186.5q399 0 721 272l110 -166q-152 -131 -366.5 -212t-464.5 -81q-438 0 -700.5 233.5t-262.5 639.5zM883 559 q0 -66 27.5 -106.5t72.5 -40.5q53 0 82 28.5t43 106.5l78 405q-12 23 -41 43.5t-66 20.5q-96 0 -146 -127t-50 -330z" />
<glyph unicode="A" horiz-adv-x="1953" d="M18 0v236h43q125 0 160 88l498 1253h530l482 -1227q43 -115 147 -114h57v-236h-993v236h168q49 0 69 28q11 16 10 36q0 17 -7 36l-37 104h-574l-34 -94q-10 -28 -11 -48q0 -62 92 -62h132v-236h-732zM662 668h395l-193 520z" />
<glyph unicode="B" horiz-adv-x="1843" d="M39 0v236h135q57 0 81 18t24 74v925q0 53 -24 70.5t-81 17.5h-135v236h1005q328 0 516.5 -97.5t188.5 -305.5q0 -330 -365 -363q393 -45 394 -389q0 -203 -178.5 -312.5t-417.5 -109.5h-1143zM817 322q0 -59 24.5 -77t86.5 -18h47q102 0 163.5 56.5t61.5 175.5 q0 113 -69.5 169t-178.5 56h-135v-362zM817 905h111q119 0 186.5 56.5t67.5 171.5q0 100 -59.5 158.5t-166.5 58.5h-45q-59 0 -76.5 -16.5t-17.5 -76.5v-352z" />
<glyph unicode="C" d="M74 793q0 383 229 601t606 218q156 0 342 -68q27 -10 38 2.5t34 65.5h256v-633h-281v59q0 145 -68.5 226.5t-209.5 81.5q-172 0 -249 -133.5t-77 -409.5q0 -311 79 -442.5t267 -131.5q154 0 219.5 86t75.5 263l4 77h275v-75q0 -123 -38 -227.5t-117 -191.5t-218 -137.5 t-326 -50.5q-393 0 -617 224.5t-224 595.5z" />
<glyph unicode="D" horiz-adv-x="1982" d="M39 0v236h151q53 0 71 25.5t18 84.5v883q0 59 -17.5 85.5t-71.5 26.5h-151v236h965q193 0 353.5 -43t288.5 -131t199.5 -239.5t71.5 -352.5q0 -389 -237.5 -600t-645.5 -211h-995zM827 397q0 -92 32 -122.5t104 -30.5h41q180 0 245.5 130t65.5 439q0 283 -83 403.5 t-239 120.5h-51q-70 0 -92.5 -29.5t-22.5 -117.5v-793z" />
<glyph unicode="E" horiz-adv-x="1761" d="M39 0v236h133q57 0 82 18t25 74v925q0 53 -24 70.5t-83 17.5h-133v236h1642v-639h-264v104q0 150 -72.5 224.5t-201.5 74.5h-213q-59 0 -84 -17t-25 -71v-335h115q92 0 92 108v131h238v-745h-238v168q0 104 -98 104h-109v-356q0 -55 20.5 -73.5t78.5 -18.5h196 q160 0 240 71.5t80 255.5v101h264v-664h-1661z" />
<glyph unicode="F" horiz-adv-x="1693" d="M39 0v236h133q106 0 107 110v887q0 109 -107 108h-133v236h1636v-674h-272v182q0 113 -65.5 184.5t-178.5 71.5h-225q-59 0 -83 -17t-24 -71v-335h74q47 0 72.5 36.5t25.5 89.5v113h240v-725h-240v137q0 115 -96 115h-76v-356q0 -53 29 -72.5t88 -19.5h166v-236h-1071z " />
<glyph unicode="G" horiz-adv-x="1880" d="M74 795q0 197 67.5 355.5t182 257.5t258 151.5t303.5 52.5q119 0 236.5 -34t135.5 -34q33 0 44.5 14.5t15.5 53.5h256v-637h-285v53q0 143 -75.5 230.5t-211.5 87.5q-152 0 -232.5 -119t-80.5 -412q0 -326 59.5 -456t190.5 -130q98 0 154.5 52.5t56.5 136.5v57 q0 88 -84 88h-170v230h913v-226h-63q-41 0 -70.5 -35.5t-29.5 -95.5v-436h-220l-75 188q-162 -215 -496 -215q-209 0 -383 90.5t-285.5 281t-111.5 450.5z" />
<glyph unicode="H" horiz-adv-x="2123" d="M39 0v236h133q106 0 107 110v887q0 109 -107 108h-133v236h983v-236h-88q-106 0 -107 -108v-305h471v305q0 109 -106 108h-88v236h981v-236h-133q-104 0 -105 -108v-887q0 -111 105 -110h133v-236h-981v236h88q106 0 106 110v334h-471v-334q0 -111 107 -110h88v-236h-983 z" />
<glyph unicode="I" horiz-adv-x="1097" d="M39 0v236h151q55 0 72 17t17 75v886q0 127 -107 127h-133v236h1018v-236h-135q-53 0 -69.5 -24.5t-16.5 -83.5v-887q0 -111 106 -110h115v-236h-1018z" />
<glyph unicode="J" horiz-adv-x="1533" d="M20 428q0 152 88.5 245t229.5 93q127 0 192.5 -59.5t65.5 -167.5q0 -59 -28.5 -109.5t-88.5 -67.5q-27 -8 -42 -27.5t-15 -37.5q0 -31 40 -51.5t97 -20.5q180 0 180 242v747q0 55 -35.5 91t-93.5 36h-147v236h1034v-236h-80q-57 0 -92 -35.5t-35 -91.5v-700 q0 -236 -173 -388.5t-484 -152.5q-279 0 -446 109.5t-167 345.5z" />
<glyph unicode="K" horiz-adv-x="2125" d="M39 0v236h133q106 0 107 110v887q0 109 -107 108h-133v236h1016v-236h-150q-51 0 -67.5 -24.5t-16.5 -83.5v-416l436 389q45 39 46 84q0 20 -17.5 35.5t-40.5 15.5h-92v236h866v-236h-157q-88 0 -187 -88l-282 -249l489 -682q37 -53 59.5 -69.5t59.5 -16.5h106v-236 h-1028v236h92q41 0 67 16t26 45q0 39 -35 90l-207 293l-201 -178v-160q0 -59 15.5 -82.5t68.5 -23.5h99v-236h-965z" />
<glyph unicode="L" horiz-adv-x="1691" d="M39 0v236h133q106 0 107 110v887q0 109 -107 108h-133v236h1057v-236h-162q-106 0 -107 -108v-887q0 -74 23.5 -92t116.5 -18h143q129 0 208 82.5t79 252.5v142h272v-713h-1630z" />
<glyph unicode="M" horiz-adv-x="2519" d="M39 0v236h113q55 0 91 36.5t36 94.5v847q0 55 -35 91t-90 36h-115v236h919l320 -907l297 907h876v-236h-102q-109 0 -108 -108v-887q0 -111 108 -110h102v-236h-940v236h105q111 0 110 110v858l-415 -1204h-332l-422 1202v-835q0 -57 35 -94t90 -37h106v-236h-749z" />
<glyph unicode="N" horiz-adv-x="2066" d="M37 0v236h133q109 0 109 110v868q0 57 -28 92t-81 35h-133v236h772l700 -981v637q0 109 -106 108h-135v236h786v-236h-129q-109 0 -108 -108v-1233h-519l-720 1006v-660q0 -111 108 -110h137v-236h-786z" />
<glyph unicode="O" horiz-adv-x="1878" d="M74 797q0 369 232.5 592t633.5 223t633.5 -223.5t232.5 -591.5q0 -371 -232.5 -597.5t-633.5 -226.5t-633.5 226.5t-232.5 597.5zM684 797q0 -334 54.5 -451t201.5 -117t200.5 117t53.5 451q0 332 -53.5 444.5t-200.5 112.5q-100 0 -153.5 -47t-78 -166t-24.5 -344z" />
<glyph unicode="P" horiz-adv-x="1826" d="M39 0v236h133q106 0 107 110v838q0 82 -25 119.5t-80 37.5h-135v236h1036q358 0 535.5 -112.5t177.5 -348.5q0 -487 -576 -487h-385v-283q0 -111 107 -110h186v-236h-1081zM827 872h144q113 0 172 63.5t59 184.5q0 102 -56 168t-151 66h-39q-57 0 -93 -30t-36 -83v-369z " />
<glyph unicode="Q" horiz-adv-x="1859" d="M74 797q0 369 226 592t620 223q399 0 623 -222.5t224 -592.5q0 -250 -103 -433.5t-298 -279.5q16 -117 129 -117q43 0 69.5 34t26.5 83v27h213v-29q0 -154 -104.5 -261.5t-296.5 -107.5q-166 0 -267.5 75t-131.5 204q-27 -2 -84 -2q-399 0 -622.5 218t-223.5 589z M676 797q0 -78 2 -113q74 86 211 86q184 0 287 -149q4 106 4 176q0 223 -27 344t-81 167t-152 46q-143 0 -193.5 -112.5t-50.5 -444.5zM688 496q18 -143 70.5 -194.5t161.5 -51.5q12 0 32.5 1t30.5 1q-10 158 -56 216t-139 58q-63 1 -100 -30z" />
<glyph unicode="R" horiz-adv-x="1957" d="M39 0v236h133q106 0 107 110v838q0 82 -25 119.5t-80 37.5h-135v236h1135q276 0 433.5 -111.5t157.5 -316.5q0 -201 -120.5 -289t-344.5 -106q336 -59 336 -348v-72q0 -117 58 -117q35 0 43 33t8 115v43h192v-70q0 -377 -399 -377q-178 0 -275.5 63.5t-113.5 227.5 q-23 223 -31 264q-10 61 -56 97t-110 36h-131v-317q0 -53 24.5 -74.5t82.5 -21.5h86v-236h-975zM821 897h97q141 0 213.5 56.5t72.5 183.5q0 100 -66.5 158.5t-148.5 58.5h-61q-63 0 -85 -21.5t-22 -89.5v-346z" />
<glyph unicode="S" horiz-adv-x="1585" d="M274 1473q195 131 484 131q135 0 249.5 -39t129.5 -39q74 0 77 57h238v-553h-264v51q0 131 -95.5 201t-248.5 70q-137 0 -208 -26t-71 -93q0 -55 45 -90t174 -64l349 -80q401 -92 401 -440v-4q0 -156 -57.5 -270.5t-155.5 -178t-212 -94t-245 -30.5q-147 0 -308 39.5 t-183 39.5q-29 0 -45.5 -20.5t-16.5 -40.5h-223v602h252v-45q0 -158 112.5 -236.5t292.5 -78.5q311 0 312 155q0 70 -54.5 107t-218.5 71l-335 72q-166 35 -270 151q-101 113 -101 287q-1 256 196 388z" />
<glyph unicode="T" horiz-adv-x="1781" d="M39 891v686h1704v-686h-266v196q0 264 -236 265h-74v-985q0 -57 37 -94t92 -37h177v-236h-1164v236h178q55 0 91 36.5t36 94.5v985h-73q-236 0 -236 -265v-196h-266z" />
<glyph unicode="U" horiz-adv-x="1941" d="M39 1341v236h932v-236h-107q-109 0 -108 -112v-662q0 -291 346 -291q147 0 229 80t82 219v637q0 57 -27.5 93t-82.5 36h-95v236h695v-236h-95q-53 0 -80.5 -36.5t-27.5 -94.5v-553q0 -362 -181.5 -518.5t-525.5 -156.5q-190 0 -326.5 28.5t-243 99t-159.5 199.5t-53 320 v602q0 57 -25.5 83.5t-85.5 26.5h-61z" />
<glyph unicode="V" horiz-adv-x="1892" d="M18 1341v236h934v-236h-121q-73 0 -73 -65q0 -26 12 -64l266 -829l307 811q13 34 14 64q0 21 -7 39q-16 44 -60 44h-114v236h698v-236h-111q-27 0 -49 -21.5t-33 -49.5l-495 -1270h-555l-430 1247q-31 94 -117 94h-66z" />
<glyph unicode="W" horiz-adv-x="2654" d="M18 1341v236h854v-236h-55q-69 0 -69 -58q0 -20 8 -46l235 -807l209 690l-55 164q-18 57 -66 57h-96v236h856v-236h-96q-65 0 -65 -56q0 -19 8 -44l239 -821l234 819q7 26 7 45q0 58 -65 57h-116v236h649v-236h-92q-47 0 -68 -69l-393 -1272h-545l-197 664l-209 -664 h-544l-379 1243q-16 55 -39 76.5t-76 21.5h-74z" />
<glyph unicode="X" horiz-adv-x="1880" d="M18 0v236h48q84 0 145 71l414 479l-361 453q-47 59 -79.5 80.5t-100.5 21.5h-55v236h962v-236h-47q-49 0 -63 -44q-5 -15 -5 -29q0 -25 17 -43l160 -193l159 209q19 24 20 48q0 9 -3 19q-10 34 -51 33h-52v236h705v-236h-72q-80 0 -155 -90l-371 -434l397 -471 q33 -39 50.5 -56.5t50 -35.5t67.5 -18h62v-236h-969v236h59q39 0 52 31q4 11 5 22q0 21 -18 43l-184 231l-170 -215q-25 -28 -25 -57q0 -9 2 -18q10 -38 64 -37h47v-236h-705z" />
<glyph unicode="Y" horiz-adv-x="1845" d="M18 1341v236h934v-236h-75q-57 0 -72 -38q-4 -12 -4 -25q0 -29 22 -64l226 -364l231 379q13 23 13 43q0 18 -10 35q-22 35 -71 34h-67v236h680v-236h-92q-70 0 -119 -79l-443 -709v-186q0 -59 33 -95t94 -36h152v-236h-1108v236h154q55 0 90 36.5t35 94.5v192l-433 688 q-59 94 -135 94h-35z" />
<glyph unicode="Z" horiz-adv-x="1681" d="M57 0v283l891 1058h-323q-127 0 -201 -75.5t-74 -196.5v-154h-254v662h1503v-268l-903 -1073h293q190 0 278.5 83.5t88.5 204.5v107h254v-631h-1553z" />
<glyph unicode="[" horiz-adv-x="1021" d="M217 -381v1958h727v-236h-180q-51 0 -72.5 -32.5t-21.5 -112.5v-1216q0 -80 21.5 -114t72.5 -34h180v-213h-727z" />
<glyph unicode="\" horiz-adv-x="995" d="M0 1577h240l755 -1577h-239z" />
<glyph unicode="]" horiz-adv-x="1021" d="M78 -168h178q53 0 74.5 34t21.5 114v1216q0 80 -21.5 112.5t-74.5 32.5h-178v236h725v-1958h-725v213z" />
<glyph unicode="^" horiz-adv-x="1294" d="M123 1151l350 426h352l353 -426l-213 -143l-316 272l-311 -268z" />
<glyph unicode="_" horiz-adv-x="1527" d="M0 -172h1528v-234h-1528v234z" />
<glyph unicode="`" horiz-adv-x="972" d="M166 1343l217 263l305 -359l-129 -155z" />
<glyph unicode="a" horiz-adv-x="1404" d="M27 246q0 59 22.5 104t53 72t90 47t103.5 29.5t122 21.5l106 17q106 16 162.5 56t56.5 120q0 94 -33.5 126.5t-109.5 32.5q-86 0 -115 -49q63 -33 64 -104q0 -80 -60.5 -127t-154.5 -47q-100 0 -161.5 56t-61.5 155q0 129 154.5 207.5t391.5 78.5q236 0 359 -90t123 -239 v-434q0 -76 35 -76q41 0 40 88v106h179v-135q0 -139 -85 -214t-245 -75q-250 0 -305 156q-131 -156 -373 -156q-164 0 -261 73t-97 200zM461 281q0 -90 98 -91q72 0 122 60.5t50 136.5v76q-55 -41 -162 -68q-108 -30 -108 -114z" />
<glyph unicode="b" horiz-adv-x="1376" d="M-27 1382v195h574v-686q104 139 327 139q219 0 331 -127t112 -358q0 -264 -141.5 -411.5t-387.5 -147.5q-299 0 -407 178l-41 -164h-195v1315q0 37 -18 52t-61 15h-93zM541 637q0 -203 8 -268q20 -168 151 -168q84 0 123 72.5t39 263.5q0 152 -39 205t-118 53 q-72 0 -113 -49.5t-51 -108.5z" />
<glyph unicode="c" horiz-adv-x="1146" d="M49 510q0 240 153.5 386t434.5 146q188 0 317 -92t129 -241q0 -113 -61 -184.5t-186 -71.5q-96 0 -155.5 53t-59.5 133q0 92 90 137q4 27 -16.5 47.5t-55.5 20.5q-72 0 -94.5 -72t-22.5 -258q0 -199 38 -265.5t122 -66.5q74 0 111.5 46t48.5 141h252q0 -25 -2 -41 q-35 -354 -465 -355q-279 0 -428.5 141.5t-149.5 395.5z" />
<glyph unicode="d" horiz-adv-x="1406" d="M57 504q0 223 129 374.5t355 151.5q178 0 266 -110v407q0 55 -74 55h-151v195h626v-1323q0 -39 13.5 -49t44.5 -10h112v-195h-551v135q-41 -76 -126 -114.5t-191 -38.5q-201 0 -327 133t-126 389zM514 524q0 -160 38 -223t112 -63q109 0 137 120q12 45 12 267 q-20 180 -149 180q-74 0 -112 -61.5t-38 -219.5z" />
<glyph unicode="e" horiz-adv-x="1236" d="M49 508q0 223 166 378.5t422 155.5q254 0 396.5 -140t150.5 -339q2 -47 2 -104h-688q0 -59 4 -101q18 -172 192 -172q197 0 197 197h291q-31 -410 -545 -410q-262 0 -425 142.5t-163 392.5zM504 641h264q0 29 -2 45q-10 145 -125 145q-117 0 -135 -143z" />
<glyph unicode="f" horiz-adv-x="915" d="M33 0v195h137q59 0 59 57v555h-180v188h119q31 0 50.5 20.5t19.5 53.5v59q0 248 138 366t355 118q207 0 313.5 -87t106.5 -216q0 -109 -58.5 -172.5t-152.5 -63.5q-86 0 -139 47t-53 117t61 111q16 10 16 32q0 51 -88 52q-45 0 -74.5 -30t-29.5 -83v-324h213v-188h-213 v-535q0 -45 23.5 -61t70.5 -16h150v-195h-844z" />
<glyph unicode="g" horiz-adv-x="1296" d="M29 -137q0 61 47 116.5t170 77.5q-141 53 -142 174q0 76 56.5 136.5t175.5 81.5q-127 43 -186.5 105t-59.5 159q0 139 134 228t394 89q125 0 205 -16q-63 82 -63 178q0 74 58.5 130t156.5 56q94 0 147.5 -44t53.5 -107q0 -125 -113 -125q-29 0 -54.5 12t-33.5 29 q-24 -24 -24 -70q0 -10 1 -20q2 -57 49 -95q154 -59 154 -227q0 -154 -137 -238.5t-385 -84.5q-76 0 -135 8q-53 -14 -54 -41q0 -53 320 -68q16 -2 24 -2q223 -10 350.5 -90t127.5 -219q0 -199 -164 -282t-479 -83q-258 0 -426 58.5t-168 173.5zM346 -74q0 -117 270 -116 q113 0 165.5 27.5t52.5 68.5t-43 59.5t-142 24.5q-82 4 -196 24q-43 -4 -75 -29.5t-32 -58.5zM520 713q0 -137 105 -138q57 0 80.5 32t23.5 106q0 139 -104.5 139t-104.5 -139z" />
<glyph unicode="h" horiz-adv-x="1435" d="M14 1382v195h566v-713q100 166 331 166q147 0 238.5 -81t91.5 -214v-479q0 -61 59 -61h103v-195h-662v195h50q18 0 35.5 16t17.5 49v342q0 160 -113 160q-156 0 -156 -264v-205q0 -55 12.5 -76.5t53.5 -21.5h27v-195h-635v195h78q37 0 52 13t15 52v1034q0 88 -74 88h-90z " />
<glyph unicode="i" horiz-adv-x="794" d="M29 807v188h573v-733q0 -68 80 -67h78v-195h-727v195h104q33 0 47.5 12t14.5 51v459q0 39 -21.5 64.5t-58.5 25.5h-90zM117 1351.5q0 108.5 76.5 185.5t185 77t185.5 -77t77 -185.5t-77 -185t-185.5 -76.5t-185 76.5t-76.5 185z" />
<glyph unicode="j" horiz-adv-x="833" d="M6 -92q0 90 52.5 146.5t140.5 56.5q86 0 128 -49.5t42 -108.5q0 -94 -72 -121q6 -78 76 -78q80 0 80 109q0 82 -80 241.5t-80 270.5v342q0 39 -21.5 64.5t-58.5 25.5h-133v188h616v-589q0 -86 28 -227.5t28 -211.5q0 -197 -108.5 -283.5t-266.5 -86.5q-166 0 -268.5 84 t-102.5 227zM240 1352q0 109 76.5 185.5t185 76.5t185.5 -77t77 -185q0 -106 -78 -184t-184.5 -78t-184 78t-77.5 184z" />
<glyph unicode="k" horiz-adv-x="1523" d="M18 1382v195h582v-979l207 137q29 20 24.5 48t-36.5 32l-45 4v176h657v-188h-66q-27 0 -51 -7t-37.5 -15.5t-40 -26t-38.5 -25.5l-107 -63l223 -373q25 -41 36 -56.5t35.5 -30.5t57.5 -15h72v-195h-715v195h33q46 0 46 31q0 15 -11 38q-100 201 -103 201l-94 -59 q-4 -2 -13 -9l-12 -8q-3 -2 -10.5 -8t-9.5 -11t-4 -14.5t-2 -19.5v-60q0 -49 17.5 -65t66.5 -16h39v-195h-686v195h108q57 0 58 63v1057q0 37 -16.5 52t-57.5 15h-107z" />
<glyph unicode="l" horiz-adv-x="833" d="M33 0v195h123q37 0 48 13t11 48v1069q0 57 -68 57h-96v195h570v-1315q0 -41 15 -54t54 -13h109v-195h-766z" />
<glyph unicode="m" horiz-adv-x="2039" d="M29 807v188h555v-188q29 109 119 166t212 57q129 0 203 -57.5t80 -165.5q35 109 129 166t232 57q135 0 219 -76.5t84 -218.5v-418q0 -70 14 -96t57 -26h72v-195h-623v190h50q20 0 33.5 14.5t13.5 39.5v358q0 84 -26 121t-87 37q-137 0 -137 -264v-187q0 -66 10 -87 t55 -27l35 -5v-190h-586v190l45 5q29 2 39.5 16t10.5 45v346q0 158 -111 158q-137 0 -137 -240v-227q0 -59 13 -78.5t59 -21.5l26 -3v-190h-655v195h98q39 0 53.5 15t14.5 52v465q0 80 -80 80h-90z" />
<glyph unicode="n" horiz-adv-x="1452" d="M29 807v188h555v-159q76 195 346 194q150 0 241 -81t91 -214v-450q0 -53 15 -71.5t52 -18.5h90v-195h-653v195h31q68 0 67 81v326q0 160 -106 160q-80 0 -121 -64.5t-41 -169.5v-262q0 -41 12.5 -56t40.5 -15h43v-195h-659v195h86q51 0 65.5 18t14.5 76v434q0 84 -80 84 h-90z" />
<glyph unicode="o" horiz-adv-x="1349" d="M49 500q0 248 175 395t462 147q283 0 450 -145t167 -377q0 -240 -172.5 -393.5t-458.5 -153.5q-283 0 -453 154t-170 373zM512 510q0 -178 39 -254t125 -76q88 0 125 74t37 256q0 178 -37 248.5t-125 70.5q-84 0 -124 -73.5t-40 -245.5z" />
<glyph unicode="p" horiz-adv-x="1359" d="M10 -197h101q37 0 49 9.5t12 48.5v866q0 80 -80 80h-63v188h528v-153q35 94 126 141t216 47q190 0 306 -132t116 -372q0 -260 -129 -399t-338 -139q-90 0 -172 33.5t-111 91.5v-238q0 -39 18.5 -55.5t59.5 -16.5h137v-184h-776v184zM568 495q1 -128 10 -165 q31 -119 143 -119q145 0 145 291q0 283 -155 282q-123 0 -140 -131q-3 -25 -3 -111v-47z" />
<glyph unicode="q" horiz-adv-x="1361" d="M57 510q0 248 147.5 391t366.5 143q145 0 231.5 -51t143.5 -155l58 192h190v-1167q0 -59 78 -60h80v-184h-766v184h147q37 0 50.5 10.5t13.5 39.5v264q-84 -133 -297 -133q-195 0 -319 134t-124 392zM514 506q0 -158 39 -217.5t109 -59.5q111 0 135 140q2 29 2 233 q0 190 -144 191q-70 0 -105.5 -76t-35.5 -211z" />
<glyph unicode="r" horiz-adv-x="1210" d="M29 807v188h555v-159q80 195 323 194q123 0 203 -72.5t80 -191.5q0 -113 -57.5 -179.5t-155.5 -66.5q-78 0 -134.5 40t-56.5 110q0 49 21 84q-16 12 -45 12q-66 0 -116 -62.5t-50 -154.5v-281q0 -16 7 -30.5t34 -28.5t70 -14h106v-195h-780v195h98q68 0 68 67v453 q0 39 -20.5 65.5t-59.5 26.5h-90z" />
<glyph unicode="s" horiz-adv-x="1103" d="M49 0v369h201q2 -35 6 -52q14 -63 79.5 -98t156.5 -35q156 0 155 68q0 53 -117 80l-215 49q-266 61 -266 305q0 164 125 262.5t322 98.5q141 0 274 -60q14 -6 28.5 2t20.5 31h166v-330h-199q-6 27 -10 43q-12 45 -59 74t-125 29q-158 0 -158 -68q0 -47 86 -66l293 -63 q258 -57 258 -291q0 -170 -120 -267t-349 -97q-176 0 -303 63q-27 12 -47.5 -4t-28.5 -43h-174z" />
<glyph unicode="t" horiz-adv-x="909" d="M33 807v188h20q109 0 164 86t55 305h279v-391h285v-188h-287v-508q0 -92 51 -92q31 0 42 25.5t11 91.5v168h213v-130q0 -213 -80.5 -297.5t-267.5 -84.5q-207 0 -290 97t-83 277v453h-112z" />
<glyph unicode="u" horiz-adv-x="1417" d="M33 807v188h536v-626q0 -68 33 -103t86 -35q70 0 109 59.5t39 155.5v281q0 45 -15.5 62.5t-62.5 17.5h-96v188h577v-725q0 -45 11.5 -60t45.5 -15h86v-195h-532v176q-72 -195 -354 -194q-141 0 -233.5 64.5t-92.5 211.5v467q0 29 -2 42t-20.5 26.5t-57.5 13.5h-57z" />
<glyph unicode="v" horiz-adv-x="1230" d="M10 807v188h664v-186l-39 -4q-55 -5 -55 -46q0 -14 6 -32l141 -424l158 430q12 33 4 53.5t-35 20.5h-57v188h428v-186l-37 -4q-53 -4 -90 -107l-264 -698h-451l-266 735q-14 43 -34 57.5t-56 14.5h-17z" />
<glyph unicode="w" horiz-adv-x="1902" d="M10 807v188h637v-184l-37 -4q-41 -4 -51 -18.5t0 -49.5l135 -448l135 428q12 37 13 59q0 14 -13.5 23.5t-31.5 9.5h-56v184h629v-180l-37 -4q-43 -4 -53 -18.5t0 -49.5l139 -452l135 428q14 43 15 59q0 14 -14.5 23.5t-30.5 9.5h-58v184h424v-186l-35 -4 q-31 -4 -51 -29.5t-39 -77.5l-256 -698h-417l-160 451l-148 -451h-430l-252 741q-14 41 -26.5 53.5t-40.5 12.5h-25z" />
<glyph unicode="x" horiz-adv-x="1290" d="M23 0v195h30q43 0 90 55l234 268l-45 51l-94 107l-45 51q-6 6 -16.5 18.5t-14.5 16.5t-11.5 12t-10.5 10t-9 7.5t-10 6.5t-10.5 4t-11.5 3t-12 1t-17 1h-33v188h692v-186l-27 -4q-27 -4 -36 -26.5t14 -49.5l86 -92l90 104q16 18 8 39t-30 25l-31 4v186h454v-188h-43 q-18 0 -33.5 -9.5t-21.5 -16.5t-33 -36l-227 -258l164 -178q51 -55 88 -75.5t84 -20.5h33v-213h-709v195h43q23 0 28 19t-12 42l-98 121l-108 -125q-18 -23 -8 -40t36 -17h39v-195h-456z" />
<glyph unicode="y" horiz-adv-x="1157" d="M-23 -115q0 88 53.5 140.5t139.5 52.5q76 0 118 -39t42 -96q0 -74 -56 -109q6 -20 11.5 -28.5t23 -16.5t47.5 -8q92 0 150 231h-88l-291 729q-16 41 -29.5 53.5t-46.5 12.5h-41v188h645v-188h-45q-37 0 -48 -22.5t1 -55.5l117 -334l117 326q8 23 8 47q0 39 -55 39h-37 v188h430v-188h-17q-55 0 -74.5 -22.5t-52.5 -114.5l-225 -619q-45 -125 -81 -197.5t-89 -134t-124.5 -87t-176.5 -25.5q-145 0 -235.5 79.5t-90.5 198.5z" />
<glyph unicode="z" horiz-adv-x="1150" d="M43 0v205l547 598h-172q-72 0 -118 -46t-46 -116v-66h-201v420h1051v-204l-545 -603h178q174 0 174 150v74h201v-412h-1069z" />
<glyph unicode="{" horiz-adv-x="1021" d="M39 485v228h80q160 0 160 161v343q0 154 95 257t226 103h379v-236h-78q-172 0 -172 -147v-371q0 -96 -50 -153.5t-142 -48.5l-152 14v-51l150 8q94 6 144 -59.5t50 -161.5v-389q0 -150 172 -150h78v-213h-379q-131 0 -226 104.5t-95 258.5v340q0 164 -160 163h-80z" />
<glyph unicode="|" horiz-adv-x="968" d="M350 -414v2081h275v-2081h-275z" />
<glyph unicode="}" horiz-adv-x="1021" d="M43 -168h78q170 0 170 150v389q0 96 51 161.5t143 59.5l152 -10v51l-152 -12q-90 -8 -142 50t-52 152v371q0 147 -170 147h-78v236h379q131 0 226 -103.5t95 -256.5v-343q0 -162 160 -161h80v-228h-80q-160 0 -160 -163v-340q0 -154 -95 -258.5t-226 -104.5h-379v213z " />
<glyph unicode="~" horiz-adv-x="1042" d="M84 1143v125q0 100 67.5 190t200.5 90q72 0 150 -49q18 -12 53 -35.5t62.5 -41t33.5 -21.5q29 0 47.5 16.5t23.5 31.5t5 30v39h227v-99q0 -133 -60 -213t-169 -80q-76 0 -144.5 31t-123 62.5t-92.5 31.5q-53 0 -54 -51v-57h-227z" />
<glyph unicode="&#xa1;" horiz-adv-x="884" d="M199 1053q0 104 76.5 179t183.5 75q111 0 190.5 -80t79.5 -193q0 -102 -82 -172.5t-192 -70.5q-102 0 -179 78t-77 184zM231 -45q0 23 1 46.5t5.5 49t6.5 45t8 49t9 44t12.5 49t12.5 46t14 51.5t13 48q33 123 33 324h217q4 -215 35 -324q82 -297 82 -428 q0 -125 -58.5 -204t-164.5 -79q-109 0 -167.5 79t-58.5 204z" />
<glyph unicode="&#xa2;" horiz-adv-x="1175" d="M63 692q0 457 422 535v108h203v-96q178 -10 293 -101t115 -241q0 -111 -69 -183.5t-193 -72.5q-88 0 -147.5 53.5t-59.5 134.5q0 96 80 152q-10 31 -19.5 39t-34.5 8q-68 0 -92 -63.5t-24 -223.5q0 -207 26.5 -278.5t128.5 -71.5q61 0 93 48t32 114h291v-41 q0 -156 -126 -248t-294 -104v-178h-203v188q-213 47 -317.5 186t-104.5 336z" />
<glyph unicode="&#xa3;" horiz-adv-x="1544" d="M72 276q0 121 97 205t224 84q131 0 234 -35q-25 39 -72 91h-385v182h201q-168 180 -168 336q0 211 189.5 340t432.5 131q262 2 435.5 -113t173.5 -330q0 -139 -81 -222t-233 -83q-102 0 -185 61.5t-83 159.5q0 82 48 131.5t149 49.5q0 45 -41 79.5t-103 34.5 q-92 0 -145 -66.5t-53 -189.5q0 -129 77 -319h342v-182h-262q41 -113 41 -187v-28q98 -45 191 -46q57 0 91 43t34 113v39h239v-47q0 -274 -71.5 -401t-241.5 -127q-217 0 -346 135q-121 -137 -346 -138q-168 0 -275.5 73.5t-107.5 225.5zM303 276q0 -39 40 -61t95 -22 q145 0 203 94q-94 82 -221 82q-47 0 -82 -24t-35 -69z" />
<glyph unicode="&#xa4;" horiz-adv-x="1466" d="M49 467v213h84q-4 74 -4 113q0 43 2 65h-82v203h111q68 262 258 406.5t463 144.5q133 0 250.5 -40t199.5 -129t82 -214q0 -88 -51 -158t-172 -70q-111 0 -162 54.5t-51 122.5q0 113 104 151q-16 29 -56 52.5t-95 23.5q-109 0 -167 -82t-79 -262h229v-203h-239v-55 q0 -84 2 -123h237v-213h-215q27 -129 80 -183.5t137 -54.5q201 0 220 349l4 77h264v-75q0 -303 -141.5 -455t-434.5 -152q-260 0 -428 126t-231 368h-119z" />
<glyph unicode="&#xa5;" horiz-adv-x="1654" d="M33 1350v227h856v-227h-88q-55 0 -72.5 -41t8.5 -84l203 -365l201 381q23 45 8.5 77t-57.5 32h-66v227h602v-227h-84q-74 0 -119 -82q-33 -63 -79 -150h208v-203h-313q-141 -274 -145 -274h458v-213h-497v-102q0 -59 20.5 -86t71.5 -27h147v-213h-952v213h129 q51 0 71.5 26.5t20.5 86.5v102h-465v213h430l-137 274h-293v203h191l-68 137q-45 94 -139 95h-51z" />
<glyph unicode="&#xa6;" d="M180 604l350 334l-86 467l420 -227l420 227l-90 -471l350 -332l-479 -59l-205 -430l-203 432zM528 719l234 -29l100 -215l101 213l233 29l-168 160l43 235l-205 -111l-211 113l45 -233z" />
<glyph unicode="&#xa7;" horiz-adv-x="1396" d="M133 748q0 174 148 286q-68 88 -68 209t74.5 198t182.5 106.5t249 29.5q174 0 306 -65.5t132 -168.5q0 -84 -50 -124.5t-128 -40.5q-96 0 -147.5 39.5t-51.5 91.5q0 68 80 102q-6 20 -46 33.5t-89 13.5q-59 0 -99 -33.5t-40 -89.5q0 -125 180 -168q262 -63 380 -145 t118 -215q0 -172 -146 -283q76 -90 76 -217q0 -176 -143.5 -256t-368.5 -80q-182 0 -312 64.5t-130 171.5q0 84 51 126t129 42q96 0 148.5 -41t52.5 -92q0 -68 -80 -105q14 -45 137 -45q59 0 99 34t40 89q0 127 -182 170q-264 63 -383 146.5t-119 216.5zM381 883 q0 -45 55.5 -78t216.5 -66q233 -47 367 -129q16 29 16 64q0 43 -62.5 74.5t-225.5 66.5q-221 47 -355 123q-12 -24 -12 -55z" />
<glyph unicode="&#xa8;" horiz-adv-x="972" d="M53 1272q0 76 53.5 130t126.5 54q76 0 129.5 -54t53.5 -130t-53.5 -129t-129.5 -53q-74 0 -127 53t-53 129zM557 1272q0 76 53.5 130t130.5 54q76 0 128.5 -53t52.5 -131q0 -76 -52.5 -129t-128 -53t-130 53t-54.5 129z" />
<glyph unicode="&#xa9;" horiz-adv-x="2043" d="M90 680q0 387 275.5 660.5t662.5 273.5q254 0 469 -125t341 -340t126 -469q0 -387 -275.5 -661.5t-660.5 -274.5q-387 0 -662.5 274.5t-275.5 661.5zM250 679.5q0 -321.5 228.5 -548.5t550 -227t549.5 227t228 548.5t-228 549t-549.5 227.5t-550 -227.5t-228.5 -549z M477 670q0 227 152.5 379.5t376.5 152.5q68 0 153 -26l88 -25q27 0 40 18.5t13 40.5h158v-413h-198l-3 32q-2 41 -8 68t-23.5 61.5t-54 52t-94.5 17.5q-100 0 -155.5 -96t-55.5 -248q0 -203 54.5 -289t169.5 -86q104 0 145 52.5t41 146.5v65h215v-67q0 -154 -96.5 -258.5 t-319.5 -104.5q-303 0 -450.5 143.5t-147.5 383.5z" />
<glyph unicode="&#xaa;" horiz-adv-x="1415" d="M150 983q0 39 12 69.5t41.5 51t55.5 34t77 23.5t80.5 14.5t91.5 10.5l72 8q100 12 144 42t44 105q0 74 -23.5 108t-97.5 34q-78 0 -104 -51q57 -29 57 -84q0 -59 -60.5 -96.5t-127.5 -37.5q-80 0 -136.5 46.5t-56.5 119.5q0 106 138.5 170t332.5 64q100 0 189.5 -21.5 t158 -78t68.5 -142.5v-371q0 -31 8 -41t33 -10q27 0 36 12.5t9 45.5v77h117v-108q0 -113 -79 -170t-210 -57q-100 0 -149.5 23.5t-104.5 98.5q-82 -74 -139.5 -98t-167.5 -24q-156 0 -232.5 62t-76.5 171zM199 498v170h1020v-170h-1020zM535 1008q0 -29 23.5 -50.5 t49.5 -21.5q61 0 105.5 38t44.5 95v64q-27 -12 -90 -31q-82 -23 -107.5 -41t-25.5 -53z" />
<glyph unicode="&#xab;" horiz-adv-x="1560" d="M96 504v129l778 459v-158l-366 -365l366 -366v-156zM686 504v129l774 459v-158l-366 -365l366 -366v-156z" />
<glyph unicode="&#xac;" horiz-adv-x="1116" d="M41 258v500h195v-76q0 -27 12 -38t51 -11h121v104q0 41 -10.5 52.5t-38.5 11.5h-84v194h536v-194h-63q-33 0 -48.5 -14.5t-15.5 -53.5v-100h121q41 0 52.5 11t11.5 38v76h194v-500h-194v47q0 70 -68 70h-117v-113q0 -68 64 -67h63v-195h-536v195h84q29 0 39 12t10 51v117 h-117q-68 0 -67 -70v-47h-195z" />
<glyph unicode="&#xad;" horiz-adv-x="985" d="M160 401v420h665v-420h-665z" />
<glyph unicode="&#xae;" horiz-adv-x="2043" d="M90 680q0 387 275.5 660.5t662.5 273.5q254 0 469 -125t341 -340t126 -469q0 -387 -275.5 -661.5t-660.5 -274.5q-387 0 -662.5 274.5t-275.5 661.5zM250 679.5q0 -321.5 228.5 -548.5t550 -227t549.5 227t228 548.5t-228 549t-549.5 227.5t-550 -227.5t-228.5 -549z M467 223v150h53q82 0 82 110v428q0 109 -82 109h-53v154h721q170 0 270.5 -67t100.5 -179q0 -129 -83 -190.5t-212 -63.5q113 -33 151.5 -75t38.5 -130v-43q0 -39 6 -55.5t27 -16.5q51 0 51 90v25h107v-43q0 -143 -61.5 -187t-203.5 -44q-119 0 -175 39.5t-62 134.5l-4 61 q-8 117 -36 161t-95 44h-76v-152q0 -68 21.5 -89t66.5 -21h37v-150h-590zM932 764h88q102 0 139 33.5t37 111.5q0 57 -47 98.5t-102 41.5h-31q-84 0 -84 -109v-176z" />
<glyph unicode="&#xaf;" horiz-adv-x="972" d="M152 1094v243h673v-243h-673z" />
<glyph unicode="&#x2c9;" horiz-adv-x="972" d="M152 1094v243h673v-243h-673z" />
<glyph unicode="&#xb0;" horiz-adv-x="950" d="M90 1237q0 160 112.5 272.5t272.5 112.5t273.5 -112.5t113.5 -272.5t-113.5 -272.5t-273.5 -112.5t-272.5 113.5t-112.5 271.5zM309 1237q0 -70 48.5 -119t118 -49t118.5 49t49 119t-49 119t-118.5 49t-118 -49t-48.5 -119z" />
<glyph unicode="&#xb1;" horiz-adv-x="2164" d="M35 0v195h133q35 0 48 16t13 59v537h-180v188h119q70 0 70 78v55q0 489 557 490q221 0 317 -84q135 84 336 84q180 0 283 -41h251v-1282q0 -80 11 -90q10 -10 45 -10h94v-195h-651v195h55q10 0 16.5 1t12.5 1t10 3t7 3t5 6t3 7t1 10v13v14v17v795q-16 4 -24 8 q-35 20 -59.5 60.5t-24.5 87.5q0 98 86 145q-31 78 -121 78q-84 0 -114.5 -58.5t-30.5 -179.5v-211h194v-188h-194v-526q0 -49 14 -67.5t57 -18.5h35v-195h-598v195h43q37 0 49 15t12 60v537h-288v-524q0 -53 14 -70.5t61 -17.5h37v-195h-704zM627 995h213q39 0 59 21 q18 18 19 49q-66 20 -90.5 57t-24.5 105q0 82 82 139q-23 41 -48.5 59.5t-76.5 18.5q-59 0 -96 -41t-37 -90v-318z" />
<glyph unicode="&#xb2;" d="M180 604l350 334l-86 467l420 -227l420 227l-90 -471l350 -332l-479 -59l-205 -430l-203 432zM528 719l234 -29l100 -215l101 213l233 29l-168 160l43 235l-205 -111l-211 113l45 -233z" />
<glyph unicode="&#xb3;" d="M180 604l350 334l-86 467l420 -227l420 227l-90 -471l350 -332l-479 -59l-205 -430l-203 432zM528 719l234 -29l100 -215l101 213l233 29l-168 160l43 235l-205 -111l-211 113l45 -233z" />
<glyph unicode="&#xb4;" horiz-adv-x="972" d="M231 1243l306 359l219 -261l-394 -254z" />
<glyph unicode="&#xb5;" d="M180 604l350 334l-86 467l420 -227l420 227l-90 -471l350 -332l-479 -59l-205 -430l-203 432zM528 719l234 -29l100 -215l101 213l233 29l-168 160l43 235l-205 -111l-211 113l45 -233z" />
<glyph unicode="&#x3bc;" d="M180 604l350 334l-86 467l420 -227l420 227l-90 -471l350 -332l-479 -59l-205 -430l-203 432zM528 719l234 -29l100 -215l101 213l233 29l-168 160l43 235l-205 -111l-211 113l45 -233z" />
<glyph unicode="&#xb6;" horiz-adv-x="1808" d="M172 1090q0 231 142.5 359t420.5 128h916v-195h-86q-61 0 -99.5 -48t-38.5 -142v-1284h-151v1440q0 35 -16.5 52t-59.5 17q-98 0 -98 -100v-1409h-150v696h-174q-319 0 -462.5 121t-143.5 365zM602 1104q0 -346 268 -346h82v497q0 158 -125 158h-36q-109 0 -149 -76.5 t-40 -232.5z" />
<glyph unicode="&#xb7;" horiz-adv-x="794" d="M143 754q0 100 79 169.5t186 69.5q100 0 174.5 -75.5t74.5 -178t-73.5 -176.5t-175.5 -74q-109 0 -187 77t-78 188z" />
<glyph unicode="&#x2219;" horiz-adv-x="794" d="M143 754q0 100 79 169.5t186 69.5q100 0 174.5 -75.5t74.5 -178t-73.5 -176.5t-175.5 -74q-109 0 -187 77t-78 188z" />
<glyph unicode="&#xb8;" horiz-adv-x="972" d="M324 -389l24 88q41 -25 90 -25q76 0 76 66q0 72 -131 98l37 139h106l-14 -63q6 -2 20.5 -5t20.5 -5q174 -61 174 -166q0 -86 -51 -125t-162 -39q-106 0 -190 37z" />
<glyph unicode="&#xb9;" d="M180 604l350 334l-86 467l420 -227l420 227l-90 -471l350 -332l-479 -59l-205 -430l-203 432zM528 719l234 -29l100 -215l101 213l233 29l-168 160l43 235l-205 -111l-211 113l45 -233z" />
<glyph unicode="&#xba;" horiz-adv-x="1306" d="M147 1178q0 195 152 317.5t369 122.5t358 -122t141 -304q0 -188 -146.5 -315t-367.5 -127q-217 0 -361.5 127t-144.5 301zM197 498v170h917v-170h-917zM543 1186q0 -158 19.5 -213t95 -55t95 55t19.5 213q0 154 -19.5 206t-95 52t-95 -52t-19.5 -206z" />
<glyph unicode="&#xbb;" horiz-adv-x="1560" d="M96 47v156l369 366l-369 365v158l778 -459v-129zM686 47v156l369 366l-369 365v158l774 -459v-129z" />
<glyph unicode="&#xbc;" d="M180 604l350 334l-86 467l420 -227l420 227l-90 -471l350 -332l-479 -59l-205 -430l-203 432zM528 719l234 -29l100 -215l101 213l233 29l-168 160l43 235l-205 -111l-211 113l45 -233z" />
<glyph unicode="&#xbd;" d="M180 604l350 334l-86 467l420 -227l420 227l-90 -471l350 -332l-479 -59l-205 -430l-203 432zM528 719l234 -29l100 -215l101 213l233 29l-168 160l43 235l-205 -111l-211 113l45 -233z" />
<glyph unicode="&#xbe;" d="M180 604l350 334l-86 467l420 -227l420 227l-90 -471l350 -332l-479 -59l-205 -430l-203 432zM528 719l234 -29l100 -215l101 213l233 29l-168 160l43 235l-205 -111l-211 113l45 -233z" />
<glyph unicode="&#xbf;" horiz-adv-x="1316" d="M96 86q0 254 240 348q276 109 276 254v60h250v-97q0 -211 -203 -354q-102 -74 -102 -240q0 -84 45 -137t123 -53q63 0 100 30.5t45 75.5q-84 6 -129 53.5t-45 123.5q0 104 69 161.5t175 57.5q119 0 201 -79t82 -224q0 -180 -152.5 -288t-392.5 -108q-242 0 -412 113 t-170 303zM473 1061q0 102 75 174t181 72q111 0 190.5 -76t79.5 -184q0 -104 -81.5 -173t-192.5 -69q-102 0 -177 75t-75 181z" />
<glyph unicode="&#xc0;" horiz-adv-x="1953" d="M18 0v236h43q125 0 160 88l498 1253h530l482 -1227q43 -115 147 -114h57v-236h-993v236h168q49 0 68.5 28.5t3.5 71.5l-37 104h-574l-34 -94q-41 -111 81 -110h132v-236h-732zM598 1896l217 263l305 -359l-129 -155zM662 668h395l-193 520z" />
<glyph unicode="&#xc1;" horiz-adv-x="1953" d="M18 0v236h43q125 0 160 88l498 1253h530l482 -1227q43 -115 147 -114h57v-236h-993v236h168q49 0 68.5 28.5t3.5 71.5l-37 104h-574l-34 -94q-41 -111 81 -110h132v-236h-732zM662 668h395l-193 520zM829 1796l306 358l219 -260l-393 -254z" />
<glyph unicode="&#xc2;" horiz-adv-x="1953" d="M18 0v236h43q125 0 160 88l498 1253h530l482 -1227q43 -115 147 -114h57v-236h-993v236h168q49 0 68.5 28.5t3.5 71.5l-37 104h-574l-34 -94q-41 -111 81 -110h132v-236h-732zM584 1757l286 277h217l287 -277l-110 -125l-285 170l-287 -170zM662 668h395l-193 520z" />
<glyph unicode="&#xc3;" horiz-adv-x="1953" d="M18 0v236h43q125 0 160 88l498 1253h530l482 -1227q43 -115 147 -114h57v-236h-993v236h168q49 0 68.5 28.5t3.5 71.5l-37 104h-574l-34 -94q-41 -111 81 -110h132v-236h-732zM559 1731q2 6 14 34l19 43q49 102 107.5 146.5t146.5 44.5q94 0 198 -66q78 -51 136 -51 q63 0 100 47q14 16 25 39l84 -57q-2 -4 -33 -72q-47 -102 -103.5 -149.5t-154.5 -47.5q-96 0 -199 66q-88 51 -133 51q-68 0 -98 -43q-16 -18 -27 -43zM662 668h395l-193 520z" />
<glyph unicode="&#xc4;" horiz-adv-x="1953" d="M18 0v236h43q125 0 160 88l498 1253h530l482 -1227q43 -115 147 -114h57v-236h-993v236h168q49 0 68.5 28.5t3.5 71.5l-37 104h-574l-34 -94q-41 -111 81 -110h132v-236h-732zM543 1835q0 76 53 130t127 54q76 0 129 -54t53 -130t-53 -129t-129 -53q-74 0 -127 53 t-53 129zM662 668h395l-193 520zM1047 1835q0 78 54 131t130 53t128 -53t52 -131q0 -76 -52 -129t-128 -53t-130 53t-54 129z" />
<glyph unicode="&#xc5;" horiz-adv-x="1953" d="M18 0v236h43q125 0 160 88l490 1206q-53 68 -54 153q0 129 95.5 223.5t224.5 94.5q131 0 226 -93t95 -225q0 -92 -47 -149l480 -1184q47 -115 147 -114h57v-236h-997v236h162q47 0 66.5 28.5t2.5 71.5l-36 104h-562l-34 -94q-41 -111 81 -110h127v-236h-727zM662 668h385 l-189 508zM864 1683q0 -49 33 -81.5t80 -32.5q49 0 83 32.5t34 81.5q0 47 -35 81t-82 34t-80 -34t-33 -81z" />
<glyph unicode="&#xc6;" horiz-adv-x="2691" d="M27 0v236h41q92 0 139 77l584 920q20 33 0.5 70.5t-58.5 37.5h-88v236h1985v-639h-265v104q0 150 -72.5 224.5t-201.5 74.5h-211q-59 0 -85 -17t-26 -71v-335h117q90 0 90 108v131h240v-745h-240v168q0 104 -96 104h-111v-356q0 -55 21.5 -73.5t79.5 -18.5h196 q160 0 240 71.5t80 255.5v101h264v-664h-1618v254h129q55 0 71.5 17.5t16.5 74.5v121h-602l-49 -82q-37 -66 -17.5 -98.5t87.5 -32.5h96v-254h-737zM797 707h452v694z" />
<glyph unicode="&#xc7;" d="M74 793q0 383 229 601t606 218q156 0 342 -68q27 -10 38 2.5t34 65.5h256v-633h-281v59q0 145 -68.5 226.5t-209.5 81.5q-172 0 -249 -133.5t-77 -409.5q0 -311 79 -442.5t267 -131.5q154 0 219.5 86t75.5 263l4 77h275v-75q0 -119 -35 -219.5t-106.5 -186.5t-198.5 -138 t-297 -61l-8 -38q6 -2 20.5 -5.5t20.5 -5.5q174 -61 174 -166q0 -86 -51.5 -124.5t-161.5 -38.5q-106 0 -191 36l25 88q41 -25 90 -24q76 0 76 65q0 72 -131 99l30 112q-375 14 -585.5 238t-210.5 582z" />
<glyph unicode="&#xc8;" horiz-adv-x="1761" d="M39 0v236h133q57 0 82 18t25 74v925q0 53 -24 70.5t-83 17.5h-133v236h1642v-639h-264v104q0 150 -72.5 224.5t-201.5 74.5h-213q-59 0 -84 -17t-25 -71v-335h115q92 0 92 108v131h238v-745h-238v168q0 104 -98 104h-109v-356q0 -55 20.5 -73.5t78.5 -18.5h196 q160 0 240 71.5t80 255.5v101h264v-664h-1661zM508 1896l217 263l305 -359l-129 -155z" />
<glyph unicode="&#xc9;" horiz-adv-x="1761" d="M39 0v236h133q57 0 82 18t25 74v925q0 53 -24 70.5t-83 17.5h-133v236h1642v-639h-264v104q0 150 -72.5 224.5t-201.5 74.5h-213q-59 0 -84 -17t-25 -71v-335h115q92 0 92 108v131h238v-745h-238v168q0 104 -98 104h-109v-356q0 -55 20.5 -73.5t78.5 -18.5h196 q160 0 240 71.5t80 255.5v101h264v-664h-1661zM778 1806l305 359l220 -260l-394 -254z" />
<glyph unicode="&#xca;" horiz-adv-x="1761" d="M39 0v236h133q57 0 82 18t25 74v925q0 53 -24 70.5t-83 17.5h-133v236h1642v-639h-264v104q0 150 -72.5 224.5t-201.5 74.5h-213q-59 0 -84 -17t-25 -71v-335h115q92 0 92 108v131h238v-745h-238v168q0 104 -98 104h-109v-356q0 -55 20.5 -73.5t78.5 -18.5h196 q160 0 240 71.5t80 255.5v101h264v-664h-1661zM528 1757l287 277h217l287 -277l-111 -125l-284 170l-287 -170z" />
<glyph unicode="&#xcb;" horiz-adv-x="1761" d="M39 0v236h133q57 0 82 18t25 74v925q0 53 -24 70.5t-83 17.5h-133v236h1642v-639h-264v104q0 150 -72.5 224.5t-201.5 74.5h-213q-59 0 -84 -17t-25 -71v-335h115q92 0 92 108v131h238v-745h-238v168q0 104 -98 104h-109v-356q0 -55 20.5 -73.5t78.5 -18.5h196 q160 0 240 71.5t80 255.5v101h264v-664h-1661zM500 1835q0 76 53 130t127 54q76 0 129 -54t53 -130t-53 -129t-129 -53q-74 0 -127 53t-53 129zM1004 1835q0 78 53 131t131 53q76 0 128 -53t52 -131q0 -76 -52 -129t-128 -53t-130 53t-54 129z" />
<glyph unicode="&#xcc;" horiz-adv-x="1097" d="M39 0v236h151q55 0 72 17t17 75v886q0 127 -107 127h-133v236h1018v-236h-135q-53 0 -69.5 -24.5t-16.5 -83.5v-887q0 -111 106 -110h115v-236h-1018zM160 1896l217 263l305 -359l-129 -155z" />
<glyph unicode="&#xcd;" horiz-adv-x="1097" d="M39 0v236h151q55 0 72 17t17 75v886q0 127 -107 127h-133v236h1018v-236h-135q-53 0 -69.5 -24.5t-16.5 -83.5v-887q0 -111 106 -110h115v-236h-1018zM403 1796l306 358l219 -260l-393 -254z" />
<glyph unicode="&#xce;" horiz-adv-x="1097" d="M39 0v236h151q55 0 72 17t17 75v886q0 127 -107 127h-133v236h1018v-236h-135q-53 0 -69.5 -24.5t-16.5 -83.5v-887q0 -111 106 -110h115v-236h-1018zM176 1757l287 277h217l287 -277l-111 -125l-285 170l-286 -170z" />
<glyph unicode="&#xcf;" horiz-adv-x="1097" d="M39 0v236h151q55 0 72 17t17 75v886q0 127 -107 127h-133v236h1018v-236h-135q-53 0 -69.5 -24.5t-16.5 -83.5v-887q0 -111 106 -110h115v-236h-1018zM127 1835q0 76 53 130t127 54q76 0 129 -54t53 -130t-53 -129t-129 -53q-74 0 -127 53t-53 129zM631 1835q0 78 53 131 t131 53q76 0 128 -53t52 -131q0 -76 -52 -129t-128 -53t-130 53t-54 129z" />
<glyph unicode="&#xd0;" horiz-adv-x="1982" d="M39 0v236h151q53 0 71 25.5t18 84.5v324h-191v245h191v314q0 59 -17.5 85.5t-71.5 26.5h-151v236h965q193 0 353.5 -43t288.5 -131t199.5 -239.5t71.5 -352.5q0 -389 -237.5 -600t-645.5 -211h-995zM827 397q0 -92 32 -122.5t104 -30.5h41q180 0 245.5 130t65.5 439 q0 283 -83 403.5t-239 120.5h-51q-70 0 -92.5 -29.5t-22.5 -117.5v-275h226v-245h-226v-273z" />
<glyph unicode="&#xd1;" horiz-adv-x="2066" d="M37 0v236h133q109 0 109 110v868q0 57 -28 92t-81 35h-133v236h772l700 -981v637q0 109 -106 108h-135v236h786v-236h-129q-109 0 -108 -108v-1233h-519l-720 1006v-660q0 -111 108 -110h137v-236h-786zM637 1731q2 6 14 34l19 43q49 102 107.5 146.5t146.5 44.5 q94 0 198 -66q78 -51 135 -51q63 0 101 47q14 16 24 39l84 -57q-2 -4 -32 -72q-47 -102 -103.5 -149.5t-154.5 -47.5q-96 0 -199 66q-88 51 -133 51q-68 0 -99 -43q-16 -18 -26 -43z" />
<glyph unicode="&#xd2;" horiz-adv-x="1878" d="M74 797q0 369 232.5 592t633.5 223t633.5 -223.5t232.5 -591.5q0 -371 -232.5 -597.5t-633.5 -226.5t-633.5 226.5t-232.5 597.5zM612 1923l217 262l306 -358l-129 -156zM684 797q0 -334 54.5 -451t201.5 -117t200.5 117t53.5 451q0 332 -53.5 444.5t-200.5 112.5 q-100 0 -153.5 -47t-78 -166t-24.5 -344z" />
<glyph unicode="&#xd3;" horiz-adv-x="1878" d="M74 797q0 369 232.5 592t633.5 223t633.5 -223.5t232.5 -591.5q0 -371 -232.5 -597.5t-633.5 -226.5t-633.5 226.5t-232.5 597.5zM684 797q0 -334 54.5 -451t201.5 -117t200.5 117t53.5 451q0 332 -53.5 444.5t-200.5 112.5q-100 0 -153.5 -47t-78 -166t-24.5 -344z M786 1823l306 358l219 -260l-393 -254z" />
<glyph unicode="&#xd4;" horiz-adv-x="1878" d="M74 797q0 369 232.5 592t633.5 223t633.5 -223.5t232.5 -591.5q0 -371 -232.5 -597.5t-633.5 -226.5t-633.5 226.5t-232.5 597.5zM551 1772l287 276h217l286 -276l-110 -125l-285 170l-287 -170zM684 797q0 -334 54.5 -451t201.5 -117t200.5 117t53.5 451 q0 332 -53.5 444.5t-200.5 112.5q-100 0 -153.5 -47t-78 -166t-24.5 -344z" />
<glyph unicode="&#xd5;" horiz-adv-x="1878" d="M74 797q0 369 232.5 592t633.5 223t633.5 -223.5t232.5 -591.5q0 -371 -232.5 -597.5t-633.5 -226.5t-633.5 226.5t-232.5 597.5zM555 1749q2 8 14.5 35.5t18.5 42.5q49 102 107.5 146t146.5 44q94 0 198 -65q78 -51 136 -51q63 0 100 47q14 16 24 39l84 -58 q-2 -4 -32 -71q-47 -102 -103.5 -149.5t-154.5 -47.5q-92 0 -199 65q-82 51 -133 52q-68 0 -98 -43q-16 -18 -27 -43zM684 797q0 -334 54.5 -451t201.5 -117t200.5 117t53.5 451q0 332 -53.5 444.5t-200.5 112.5q-100 0 -153.5 -47t-78 -166t-24.5 -344z" />
<glyph unicode="&#xd6;" horiz-adv-x="1878" d="M74 797q0 369 232.5 592t633.5 223t633.5 -223.5t232.5 -591.5q0 -371 -232.5 -597.5t-633.5 -226.5t-633.5 226.5t-232.5 597.5zM500 1835q0 76 53 130t127 54q76 0 129 -54t53 -130t-53 -129t-129 -53q-74 0 -127 53t-53 129zM684 797q0 -334 54.5 -451t201.5 -117 t200.5 117t53.5 451q0 332 -53.5 444.5t-200.5 112.5q-100 0 -153.5 -47t-78 -166t-24.5 -344zM1004 1835q0 78 53 131t131 53q76 0 128 -53t52 -131q0 -76 -52 -129t-128 -53t-130 53t-54 129z" />
<glyph unicode="&#xd7;" d="M180 604l350 334l-86 467l420 -227l420 227l-90 -471l350 -332l-479 -59l-205 -430l-203 432zM528 719l234 -29l100 -215l101 213l233 29l-168 160l43 235l-205 -111l-211 113l45 -233z" />
<glyph unicode="&#xd8;" horiz-adv-x="1878" d="M74 797q0 369 232.5 592t633.5 223q303 0 518 -135l156 161l139 -137l-143 -149q197 -223 196 -555q0 -371 -232.5 -597.5t-633.5 -226.5q-305 0 -522 138l-191 -199l-139 137l180 189q-194 217 -194 559zM684 797q0 -86 2 -123l479 495q-25 102 -78 143.5t-147 41.5 q-100 0 -153.5 -47t-78 -166t-24.5 -344zM715 420q25 -104 78 -147.5t147 -43.5q147 0 200.5 117t53.5 451q0 82 -2 121z" />
<glyph unicode="&#xd9;" horiz-adv-x="1941" d="M39 1341v236h932v-236h-107q-109 0 -108 -112v-662q0 -291 346 -291q147 0 229 80t82 219v637q0 57 -27.5 93t-82.5 36h-95v236h695v-236h-95q-53 0 -80.5 -36.5t-27.5 -94.5v-553q0 -362 -181.5 -518.5t-525.5 -156.5q-190 0 -326.5 28.5t-243 99t-159.5 199.5t-53 320 v602q0 57 -25.5 83.5t-85.5 26.5h-61zM645 1896l217 263l305 -359l-129 -155z" />
<glyph unicode="&#xda;" horiz-adv-x="1941" d="M39 1341v236h932v-236h-107q-109 0 -108 -112v-662q0 -291 346 -291q147 0 229 80t82 219v637q0 57 -27.5 93t-82.5 36h-95v236h695v-236h-95q-53 0 -80.5 -36.5t-27.5 -94.5v-553q0 -362 -181.5 -518.5t-525.5 -156.5q-190 0 -326.5 28.5t-243 99t-159.5 199.5t-53 320 v602q0 57 -25.5 83.5t-85.5 26.5h-61zM944 1796l305 358l219 -260l-393 -254z" />
<glyph unicode="&#xdb;" horiz-adv-x="1941" d="M39 1341v236h932v-236h-107q-109 0 -108 -112v-662q0 -291 346 -291q147 0 229 80t82 219v637q0 57 -27.5 93t-82.5 36h-95v236h695v-236h-95q-53 0 -80.5 -36.5t-27.5 -94.5v-553q0 -362 -181.5 -518.5t-525.5 -156.5q-190 0 -326.5 28.5t-243 99t-159.5 199.5t-53 320 v602q0 57 -25.5 83.5t-85.5 26.5h-61zM653 1757l287 277h217l287 -277l-111 -125l-284 170l-287 -170z" />
<glyph unicode="&#xdc;" horiz-adv-x="1941" d="M39 1341v236h932v-236h-107q-109 0 -108 -112v-662q0 -291 346 -291q147 0 229 80t82 219v637q0 57 -27.5 93t-82.5 36h-95v236h695v-236h-95q-53 0 -80.5 -36.5t-27.5 -94.5v-553q0 -362 -181.5 -518.5t-525.5 -156.5q-190 0 -326.5 28.5t-243 99t-159.5 199.5t-53 320 v602q0 57 -25.5 83.5t-85.5 26.5h-61zM647 1837q0 76 53.5 130t126.5 54q76 0 129.5 -54t53.5 -130t-53.5 -129t-129.5 -53q-74 0 -127 53t-53 129zM1151 1837q0 76 53 130t131 54q76 0 128.5 -53t52.5 -131q0 -76 -52.5 -129t-128 -53t-130 53t-54.5 129z" />
<glyph unicode="&#xdd;" horiz-adv-x="1845" d="M18 1341v236h934v-236h-75q-57 0 -71.5 -38.5t17.5 -88.5l226 -364l231 379q25 43 3.5 77.5t-71.5 34.5h-67v236h680v-236h-92q-70 0 -119 -79l-443 -709v-186q0 -59 33 -95t94 -36h152v-236h-1108v236h154q55 0 90 36.5t35 94.5v192l-433 688q-59 94 -135 94h-35z M834 1765l305 359l219 -260l-393 -254z" />
<glyph unicode="&#xde;" horiz-adv-x="1800" d="M39 0v236h67q133 0 134 143v768q0 92 -37 143t-97 51h-67v236h993v-223h-184q-35 0 -47.5 -12.5t-12.5 -38.5v-86h359q281 0 441.5 -101.5t160.5 -310.5q0 -231 -141.5 -346t-433.5 -115h-386v-55q0 -29 12.5 -41t47.5 -12h233v-236h-1042zM788 573h125q231 0 232 240 q0 80 -51.5 129t-143.5 49h-67q-47 0 -71 -32.5t-24 -77.5v-308z" />
<glyph unicode="&#xdf;" horiz-adv-x="1679" d="M35 0v195h133q35 0 48 16t13 59v537h-180v188h119q33 0 51.5 21.5t18.5 52.5v59q0 242 162.5 363t420.5 121q233 0 383 -97.5t150 -306.5q0 -111 12 -153.5t41 -71.5v-199h-184q-16 51 -74 52q-84 0 -84 -68q0 -49 121 -76l227 -51q100 -23 167 -97.5t67 -187.5 q0 -178 -105.5 -278.5t-290.5 -100.5q-80 0 -198 33l-119 33q-14 0 -25.5 -14.5t-11.5 -28.5h-164v348h185q23 -164 227 -164q117 0 117 68q0 29 -24 47t-87 33l-201 49q-244 61 -243 305q0 160 111.5 260.5t268.5 100.5h11q49 80 49 170q0 96 -71.5 151t-190.5 55 q-131 0 -190.5 -59t-59.5 -139v-1225h-600z" />
<glyph unicode="&#xe0;" horiz-adv-x="1404" d="M27 246q0 59 22.5 104t53 72t90 47t103.5 29.5t122 21.5l106 17q106 16 162.5 56t56.5 120q0 94 -33.5 126.5t-109.5 32.5q-86 0 -115 -49q63 -33 64 -104q0 -80 -60.5 -127t-154.5 -47q-100 0 -161.5 56t-61.5 155q0 129 154.5 207.5t391.5 78.5q236 0 359 -90t123 -239 v-434q0 -76 35 -76q41 0 40 88v106h179v-135q0 -139 -85 -214t-245 -75q-250 0 -305 156q-131 -156 -373 -156q-164 0 -261 73t-97 200zM342 1343l217 263l305 -359l-129 -155zM461 281q0 -90 98 -91q72 0 122 60.5t50 136.5v76q-55 -41 -162 -68q-108 -30 -108 -114z" />
<glyph unicode="&#xe1;" horiz-adv-x="1404" d="M27 246q0 59 22.5 104t53 72t90 47t103.5 29.5t122 21.5l106 17q106 16 162.5 56t56.5 120q0 94 -33.5 126.5t-109.5 32.5q-86 0 -115 -49q63 -33 64 -104q0 -80 -60.5 -127t-154.5 -47q-100 0 -161.5 56t-61.5 155q0 129 154.5 207.5t391.5 78.5q236 0 359 -90t123 -239 v-434q0 -76 35 -76q41 0 40 88v106h179v-135q0 -139 -85 -214t-245 -75q-250 0 -305 156q-131 -156 -373 -156q-164 0 -261 73t-97 200zM453 1253l305 359l219 -260l-393 -254zM461 281q0 -90 98 -91q72 0 122 60.5t50 136.5v76q-55 -41 -162 -68q-108 -30 -108 -114z" />
<glyph unicode="&#xe2;" horiz-adv-x="1404" d="M27 246q0 59 22.5 104t53 72t90 47t103.5 29.5t122 21.5l106 17q106 16 162.5 56t56.5 120q0 94 -33.5 126.5t-109.5 32.5q-86 0 -115 -49q63 -33 64 -104q0 -80 -60.5 -127t-154.5 -47q-100 0 -161.5 56t-61.5 155q0 129 154.5 207.5t391.5 78.5q236 0 359 -90t123 -239 v-434q0 -76 35 -76q41 0 40 88v106h179v-135q0 -139 -85 -214t-245 -75q-250 0 -305 156q-131 -156 -373 -156q-164 0 -261 73t-97 200zM250 1198l287 279h217l286 -277l-110 -127l-285 172l-287 -172zM461 281q0 -90 98 -91q72 0 122 60.5t50 136.5v76q-55 -41 -162 -68 q-108 -30 -108 -114z" />
<glyph unicode="&#xe3;" horiz-adv-x="1404" d="M27 246q0 59 22.5 104t53 72t90 47t103.5 29.5t122 21.5l106 17q106 16 162.5 56t56.5 120q0 94 -33.5 126.5t-109.5 32.5q-86 0 -115 -49q63 -33 64 -104q0 -80 -60.5 -127t-154.5 -47q-100 0 -161.5 56t-61.5 155q0 129 154.5 207.5t391.5 78.5q236 0 359 -90t123 -239 v-434q0 -76 35 -76q41 0 40 88v106h179v-135q0 -139 -85 -214t-245 -75q-250 0 -305 156q-131 -156 -373 -156q-164 0 -261 73t-97 200zM233 1190q4 6 14.5 34.5t18.5 43.5q49 102 107.5 146t146.5 44q100 0 199 -65q84 -51 135 -52q61 0 100 48q20 31 25 38l84 -57 q-2 -4 -33 -72q-47 -102 -103.5 -149t-154.5 -47q-92 0 -199 65q-82 51 -133 52q-66 0 -98 -43q-16 -20 -27 -43zM461 281q0 -90 98 -91q72 0 122 60.5t50 136.5v76q-55 -41 -162 -68q-108 -30 -108 -114z" />
<glyph unicode="&#xe4;" horiz-adv-x="1404" d="M27 246q0 59 22.5 104t53 72t90 47t103.5 29.5t122 21.5l106 17q106 16 162.5 56t56.5 120q0 94 -33.5 126.5t-109.5 32.5q-86 0 -115 -49q63 -33 64 -104q0 -80 -60.5 -127t-154.5 -47q-100 0 -161.5 56t-61.5 155q0 129 154.5 207.5t391.5 78.5q236 0 359 -90t123 -239 v-434q0 -76 35 -76q41 0 40 88v106h179v-135q0 -139 -85 -214t-245 -75q-250 0 -305 156q-131 -156 -373 -156q-164 0 -261 73t-97 200zM221 1274q0 76 53.5 130t126.5 54q76 0 129.5 -54t53.5 -130t-53.5 -129t-129.5 -53q-74 0 -127 53t-53 129zM461 281q0 -90 98 -91 q72 0 122 60.5t50 136.5v76q-55 -41 -162 -68q-108 -30 -108 -114zM725 1274q0 78 53 131t131 53q76 0 128.5 -53t52.5 -131q0 -76 -52.5 -129t-128 -53t-130 53t-54.5 129z" />
<glyph unicode="&#xe5;" horiz-adv-x="1404" d="M27 246q0 59 22.5 104t53 72t90 47t103.5 29.5t122 21.5l106 17q106 16 162.5 56t56.5 120q0 94 -33.5 126.5t-109.5 32.5q-86 0 -115 -49q63 -33 64 -104q0 -80 -60.5 -127t-154.5 -47q-100 0 -161.5 56t-61.5 155q0 129 154.5 207.5t391.5 78.5q236 0 359 -90t123 -239 v-434q0 -76 35 -76q41 0 40 88v106h179v-135q0 -139 -85 -214t-245 -75q-250 0 -305 156q-131 -156 -373 -156q-164 0 -261 73t-97 200zM330 1409q0 131 94 224t223 93q133 0 227.5 -93t94.5 -224t-95.5 -225t-226.5 -94q-127 0 -222 94t-95 225zM461 281q0 -90 98 -91 q72 0 122 60.5t50 136.5v76q-55 -41 -162 -68q-108 -30 -108 -114zM535 1409q0 -47 33.5 -81t78.5 -34q49 0 83 34t34 81t-34 81t-83 34q-45 0 -78.5 -34t-33.5 -81z" />
<glyph unicode="&#xe6;" horiz-adv-x="1859" d="M27 246q0 59 22.5 104t53 72t90 47t103.5 29.5t122 21.5l106 17q106 16 162.5 56t56.5 120q0 94 -33.5 126.5t-109.5 32.5q-86 0 -115 -49q63 -33 64 -104q0 -80 -60.5 -127t-154.5 -47q-100 0 -161.5 56t-61.5 155q0 129 154.5 207.5t391.5 78.5q100 0 168 -15t146 -60 q49 25 70.5 35t88 25t138.5 15q256 0 398 -141t149 -338q2 -47 2 -104h-687q0 -59 5 -101q18 -172 192 -172q98 0 147.5 52.5t49.5 144.5h288q-27 -410 -544 -410q-322 0 -453 201q-147 -201 -430 -201q-164 0 -261 73t-97 200zM461 281q0 -90 98 -91q72 0 122 60.5 t50 136.5v76q-55 -41 -162 -68q-108 -30 -108 -114zM1137 641h264q0 29 -2 45q-10 145 -127 145q-119 0 -133 -143z" />
<glyph unicode="&#xe7;" horiz-adv-x="1146" d="M49 510q0 240 153.5 386t434.5 146q188 0 317 -92t129 -241q0 -113 -61 -184.5t-186 -71.5q-96 0 -155.5 53t-59.5 133q0 92 90 137q4 27 -16.5 47.5t-55.5 20.5q-72 0 -94.5 -72t-22.5 -258q0 -199 38 -265.5t122 -66.5q74 0 111.5 46t48.5 141h252q0 -25 -2 -41 q-35 -348 -451 -355l-8 -39q6 -2 20.5 -5t20.5 -5q174 -61 174 -166q0 -86 -51.5 -125t-161.5 -39q-106 0 -191 37l25 88q41 -25 90 -24q76 0 76 65q0 72 -131 99l31 118q-233 23 -359.5 162.5t-126.5 370.5z" />
<glyph unicode="&#xe8;" horiz-adv-x="1236" d="M49 508q0 223 166 378.5t422 155.5q254 0 396.5 -140t150.5 -339q2 -47 2 -104h-688q0 -59 4 -101q18 -172 192 -172q197 0 197 197h291q-31 -410 -545 -410q-262 0 -425 142.5t-163 392.5zM344 1333l217 262l305 -358l-129 -156zM504 641h264q0 29 -2 45 q-10 145 -125 145q-117 0 -135 -143z" />
<glyph unicode="&#xe9;" horiz-adv-x="1236" d="M49 508q0 223 166 378.5t422 155.5q254 0 396.5 -140t150.5 -339q2 -47 2 -104h-688q0 -59 4 -101q18 -172 192 -172q197 0 197 197h291q-31 -410 -545 -410q-262 0 -425 142.5t-163 392.5zM426 1243l305 359l219 -261l-393 -254zM504 641h264q0 29 -2 45 q-10 145 -125 145q-117 0 -135 -143z" />
<glyph unicode="&#xea;" horiz-adv-x="1236" d="M49 508q0 223 166 378.5t422 155.5q254 0 396.5 -140t150.5 -339q2 -47 2 -104h-688q0 -59 4 -101q18 -172 192 -172q197 0 197 197h291q-31 -410 -545 -410q-262 0 -425 142.5t-163 392.5zM236 1198l286 279h217l287 -277l-111 -127l-284 172l-287 -172zM504 641h264 q0 29 -2 45q-10 145 -125 145q-117 0 -135 -143z" />
<glyph unicode="&#xeb;" horiz-adv-x="1236" d="M49 508q0 223 166 378.5t422 155.5q254 0 396.5 -140t150.5 -339q2 -47 2 -104h-688q0 -59 4 -101q18 -172 192 -172q197 0 197 197h291q-31 -410 -545 -410q-262 0 -425 142.5t-163 392.5zM197 1270q0 76 53 130t127 54q76 0 129 -54t53 -130t-53 -129.5t-129 -53.5 q-74 0 -127 53.5t-53 129.5zM504 641h264q0 29 -2 45q-10 145 -125 145q-117 0 -135 -143zM700 1270q0 78 53.5 131t131.5 53q76 0 128 -53t52 -131q0 -76 -52 -129.5t-128 -53.5t-130.5 53.5t-54.5 129.5z" />
<glyph unicode="&#xec;" horiz-adv-x="794" d="M12 1323l217 264l306 -358l-129 -158zM29 807v188h573v-706q0 -41 24.5 -67.5t61.5 -26.5h72v-195h-727v195h86q35 0 57.5 25.5t22.5 68.5v428q0 39 -21.5 64.5t-58.5 25.5h-90z" />
<glyph unicode="&#xed;" horiz-adv-x="794" d="M29 807v188h573v-706q0 -41 24.5 -67.5t61.5 -26.5h72v-195h-727v195h86q35 0 57.5 25.5t22.5 68.5v428q0 39 -21.5 64.5t-58.5 25.5h-90zM211 1233l305 358l221 -260l-393 -254z" />
<glyph unicode="&#xee;" horiz-adv-x="794" d="M-59 1198l286 279h217l287 -277l-110 -127l-285 172l-287 -172zM29 807v188h573v-706q0 -41 24.5 -67.5t61.5 -26.5h72v-195h-727v195h86q35 0 57.5 25.5t22.5 68.5v428q0 39 -21.5 64.5t-58.5 25.5h-90z" />
<glyph unicode="&#xef;" horiz-adv-x="794" d="M-82 1263.5q0 75.5 53.5 131t126.5 55.5q76 0 129.5 -54.5t53.5 -130t-53.5 -130t-129.5 -54.5q-74 0 -127 53.5t-53 129zM29 807v188h573v-706q0 -41 24.5 -67.5t61.5 -26.5h72v-195h-727v195h86q35 0 57.5 25.5t22.5 68.5v428q0 39 -21.5 64.5t-58.5 25.5h-90z M422 1264q0 78 54 132t130 54t128 -53.5t52 -130.5q0 -76 -52 -130.5t-128 -54.5t-130 53.5t-54 129.5z" />
<glyph unicode="&#xf0;" horiz-adv-x="1404" d="M53 502q0 264 160 400t399 136q145 0 222 -71q-6 141 -37 235l-47 -28l-99 -58l-47 -29l-125 164l193 117q-53 27 -117 27q-119 0 -207 -72l-117 166q131 123 383 123q168 0 318 -84l127 78l127 -164l-84 -51q201 -227 201 -629q0 -340 -175.5 -564.5t-480.5 -224.5 q-270 0 -432 142.5t-162 386.5zM516 414q0 -23 4 -74t12.5 -69.5t23.5 -45t41 -36t60 -9.5q37 0 62.5 11.5t42 38t26 49t12.5 66.5t4 66.5t1 73.5v25q0 100 -10.5 166.5t-44 113t-93.5 46.5q-35 0 -60.5 -11.5t-40.5 -41t-23.5 -52t-12.5 -74t-4 -72.5v-81v-90z" />
<glyph unicode="&#xf1;" horiz-adv-x="1452" d="M29 807v188h555v-159q76 195 346 194q150 0 241 -81t91 -214v-450q0 -53 15 -71.5t52 -18.5h90v-195h-653v195h31q68 0 67 81v326q0 160 -106 160q-80 0 -121 -64.5t-41 -169.5v-262q0 -41 12.5 -56t40.5 -15h43v-195h-659v195h86q51 0 65.5 18t14.5 76v434q0 84 -80 84 h-90zM297 1186q12 29 33 78q51 104 108.5 147t145.5 43q104 0 198 -65q88 -51 136 -52q61 0 100 47q20 31 24 39l84 -57q-6 -10 -16 -34.5t-16 -37.5q-47 -102 -103.5 -149t-154.5 -47q-92 0 -199 65q-82 51 -133 51q-66 0 -98 -43q-16 -20 -27 -43z" />
<glyph unicode="&#xf2;" horiz-adv-x="1349" d="M49 500q0 248 175 395t462 147q283 0 450 -145t167 -377q0 -240 -172.5 -393.5t-458.5 -153.5q-283 0 -453 154t-170 373zM379 1343l217 263l305 -359l-129 -155zM512 510q0 -178 39 -254t125 -76q88 0 125 74t37 256q0 178 -37 248.5t-125 70.5q-84 0 -124 -73.5 t-40 -245.5z" />
<glyph unicode="&#xf3;" horiz-adv-x="1349" d="M49 500q0 248 175 395t462 147q283 0 450 -145t167 -377q0 -240 -172.5 -393.5t-458.5 -153.5q-283 0 -453 154t-170 373zM483 1253l305 359l220 -260l-394 -254zM512 510q0 -178 39 -254t125 -76q88 0 125 74t37 256q0 178 -37 248.5t-125 70.5q-84 0 -124 -73.5 t-40 -245.5z" />
<glyph unicode="&#xf4;" horiz-adv-x="1349" d="M49 500q0 248 175 395t462 147q283 0 450 -145t167 -377q0 -240 -172.5 -393.5t-458.5 -153.5q-283 0 -453 154t-170 373zM283 1198l286 279h217l287 -277l-110 -127l-285 172l-287 -172zM512 510q0 -178 39 -254t125 -76q88 0 125 74t37 256q0 178 -37 248.5t-125 70.5 q-84 0 -124 -73.5t-40 -245.5z" />
<glyph unicode="&#xf5;" horiz-adv-x="1349" d="M49 500q0 248 175 395t462 147q283 0 450 -145t167 -377q0 -240 -172.5 -393.5t-458.5 -153.5q-283 0 -453 154t-170 373zM272 1190q2 6 15 35l18 43q49 102 107.5 146t146.5 44q100 0 199 -65q84 -51 135 -52q61 0 100 48q20 31 25 38l84 -57q-2 -4 -33 -72 q-47 -102 -103.5 -149t-154.5 -47q-92 0 -199 65q-82 51 -133 52q-66 0 -98 -43q-16 -20 -27 -43zM512 510q0 -178 39 -254t125 -76q88 0 125 74t37 256q0 178 -37 248.5t-125 70.5q-84 0 -124 -73.5t-40 -245.5z" />
<glyph unicode="&#xf6;" horiz-adv-x="1349" d="M49 500q0 248 175 395t462 147q283 0 450 -145t167 -377q0 -240 -172.5 -393.5t-458.5 -153.5q-283 0 -453 154t-170 373zM248 1267.5q0 75.5 53 130t127 54.5q76 0 129 -54.5t53 -130t-53 -129t-129 -53.5q-74 0 -127 53.5t-53 129zM512 510q0 -178 39 -254t125 -76 q88 0 125 74t37 256q0 178 -37 248.5t-125 70.5q-84 0 -124 -73.5t-40 -245.5zM752 1267.5q0 75.5 54 130t130 54.5t128 -53t52 -131q0 -76 -52 -129.5t-128 -53.5t-130 53.5t-54 129z" />
<glyph unicode="&#xf7;" horiz-adv-x="1458" d="M156 571v297h1173v-297h-1173zM547 250q0 80 57.5 137t137 57t137 -57t57.5 -137t-57.5 -136.5t-137 -56.5t-137 56.5t-57.5 136.5zM547 1188q0 80 57.5 137t137 57t137 -57t57.5 -137t-57.5 -136.5t-137 -56.5t-137 56.5t-57.5 136.5z" />
<glyph unicode="&#xf8;" horiz-adv-x="1349" d="M49 500q0 248 175 395t462 147q176 0 318 -61l83 88l125 -108q-27 -29 -67 -72q158 -145 158 -369q0 -240 -172.5 -393.5t-458.5 -153.5q-190 0 -334 74l-96 -102l-127 106l88 90q-154 148 -154 359zM504 459l301 313q-37 72 -129 72q-88 0 -130 -77t-42 -257v-51z M539 256q37 -90 137 -90q92 0 131 76.5t39 267.5q0 47 -2 65l-76 -79q-76 -80 -154 -160z" />
<glyph unicode="&#xf9;" horiz-adv-x="1417" d="M31 807v188h536v-626q0 -68 33 -103t86 -35q70 0 109 59.5t39 155.5v281q0 45 -15.5 62.5t-62.5 17.5h-97v188h578v-725q0 -45 11.5 -60t45.5 -15h86v-195h-532v176q-72 -195 -354 -194q-141 0 -233.5 64.5t-92.5 211.5v467q0 29 -2 42t-20.5 26.5t-57.5 13.5h-57z M295 1323l217 264l305 -358l-129 -158z" />
<glyph unicode="&#xfa;" horiz-adv-x="1417" d="M33 807v188h536v-626q0 -68 33 -103t86 -35q70 0 109 59.5t39 155.5v281q0 45 -15.5 62.5t-62.5 17.5h-96v188h577v-725q0 -45 11.5 -60t45.5 -15h86v-195h-532v176q-72 -195 -354 -194q-141 0 -233.5 64.5t-92.5 211.5v467q0 29 -2 42t-20.5 26.5t-57.5 13.5h-57z M528 1233l306 358l219 -260l-394 -254z" />
<glyph unicode="&#xfb;" horiz-adv-x="1417" d="M33 807v188h536v-626q0 -68 33 -103t86 -35q70 0 109 59.5t39 155.5v281q0 45 -15.5 62.5t-62.5 17.5h-96v188h577v-725q0 -45 11.5 -60t45.5 -15h86v-195h-532v176q-72 -195 -354 -194q-141 0 -233.5 64.5t-92.5 211.5v467q0 29 -2 42t-20.5 26.5t-57.5 13.5h-57z M295 1198l287 279h217l286 -277l-110 -127l-285 172l-287 -172z" />
<glyph unicode="&#xfc;" horiz-adv-x="1417" d="M33 807v188h536v-626q0 -68 33 -103t86 -35q70 0 109 59.5t39 155.5v281q0 45 -15.5 62.5t-62.5 17.5h-96v188h577v-725q0 -45 11.5 -60t45.5 -15h86v-195h-532v176q-72 -195 -354 -194q-141 0 -233.5 64.5t-92.5 211.5v467q0 29 -2 42t-20.5 26.5t-57.5 13.5h-57z M248 1259.5q0 75.5 53 131t127 55.5q76 0 129 -54.5t53 -130t-53 -130t-129 -54.5q-74 0 -127 53.5t-53 129zM752 1260q0 78 54 132t130 54t128 -53.5t52 -130.5q0 -76 -52 -130.5t-128 -54.5t-130 53.5t-54 129.5z" />
<glyph unicode="&#xfd;" horiz-adv-x="1157" d="M-23 -115q0 88 53.5 140.5t139.5 52.5q76 0 118 -39t42 -96q0 -74 -56 -109q6 -20 11.5 -28.5t23 -16.5t47.5 -8q92 0 150 231h-88l-291 729q-16 41 -29.5 53.5t-46.5 12.5h-41v188h645v-188h-45q-37 0 -48 -22.5t1 -55.5l117 -334l117 326q8 23 8 47q0 39 -55 39h-37 v188h430v-188h-17q-55 0 -74.5 -22.5t-52.5 -114.5l-225 -619q-45 -125 -81 -197.5t-89 -134t-124.5 -87t-176.5 -25.5q-145 0 -235.5 79.5t-90.5 198.5zM532 1243l306 359l219 -261l-393 -254z" />
<glyph unicode="&#xfe;" horiz-adv-x="1363" d="M-6 -197h84q78 0 78 93v1392q0 47 -13.5 70.5t-52.5 23.5h-94v195h561v-705q74 158 326 158q193 0 307.5 -132t114.5 -372q0 -260 -128 -399t-339 -139q-90 0 -171 33.5t-110 91.5v-209q0 -57 14.5 -79t57.5 -22h145v-184h-780v184zM554 495q1 -128 9 -165 q27 -119 144 -119q143 0 143 291q0 283 -156 282q-125 0 -137 -131q-4 -30 -3 -158z" />
<glyph unicode="&#xff;" horiz-adv-x="1157" d="M-23 -115q0 88 53.5 140.5t139.5 52.5q76 0 118 -39t42 -96q0 -74 -56 -109q6 -20 11.5 -28.5t23 -16.5t47.5 -8q92 0 150 231h-88l-291 729q-16 41 -29.5 53.5t-46.5 12.5h-41v188h645v-188h-45q-37 0 -48 -22.5t1 -55.5l117 -334l117 326q8 23 8 47q0 39 -55 39h-37 v188h430v-188h-17q-55 0 -74.5 -22.5t-52.5 -114.5l-225 -619q-45 -125 -81 -197.5t-89 -134t-124.5 -87t-176.5 -25.5q-145 0 -235.5 79.5t-90.5 198.5zM188 1261.5q0 75.5 53.5 130t127.5 54.5q76 0 129 -54.5t53 -130t-53.5 -129t-128.5 -53.5q-74 0 -127.5 53.5 t-53.5 129zM692 1262q0 78 53.5 131t131.5 53q76 0 128 -53.5t52 -130.5q0 -76 -52.5 -129.5t-128 -53.5t-130 53.5t-54.5 129.5z" />
<glyph unicode="&#x152;" horiz-adv-x="2658" d="M74 795q0 377 230.5 597t613.5 220q123 0 277.5 -17.5t195.5 -17.5h1185v-639h-264v104q0 150 -72.5 224.5t-201.5 74.5h-213q-59 0 -84 -17t-25 -71v-335h115q92 0 92 108v131h238v-745h-238v168q0 104 -98 104h-109v-356q0 -55 20.5 -73.5t78.5 -18.5h196 q160 0 240 71.5t80 255.5v101h264v-664h-1149q-74 0 -218.5 -13.5t-316.5 -13.5q-381 0 -609 232t-228 590zM684 797q0 -334 54.5 -451t201.5 -117q41 0 79 6.5t81 22.5t68.5 53t25.5 88v631q0 162 -53.5 243t-200.5 81q-100 0 -153.5 -47t-78 -166t-24.5 -344z" />
<glyph unicode="&#x153;" horiz-adv-x="2019" d="M49 500q0 248 175 395t462 147q123 0 207 -27.5t174 -92.5q111 121 340 120q256 0 397.5 -140t149.5 -339q2 -47 2 -104h-688q0 -59 4 -101q18 -172 192 -172q197 0 197 197h291q-31 -410 -545 -410q-203 0 -356 121q-141 -121 -379 -121q-283 0 -453 154t-170 373z M512 510q0 -178 39 -254t125 -76q88 0 125 74t37 256q0 178 -37 248.5t-125 70.5q-84 0 -124 -73.5t-40 -245.5zM1274 641h264q-2 29 -2 45q-6 145 -125 145q-117 0 -135 -143z" />
<glyph unicode="&#x178;" horiz-adv-x="1845" d="M18 1341v236h934v-236h-75q-57 0 -71.5 -38.5t17.5 -88.5l226 -364l231 379q25 43 3.5 77.5t-71.5 34.5h-67v236h680v-236h-92q-70 0 -119 -79l-443 -709v-186q0 -59 33 -95t94 -36h152v-236h-1108v236h154q55 0 90 36.5t35 94.5v192l-433 688q-59 94 -135 94h-35z M569 1835q0 76 53.5 130t127.5 54q76 0 129 -54t53 -130t-53.5 -129t-128.5 -53q-74 0 -127.5 53t-53.5 129zM1073 1835q0 78 53.5 131t130.5 53q76 0 128.5 -53t52.5 -131q0 -76 -52.5 -129t-128 -53t-130 53t-54.5 129z" />
<glyph unicode="&#x2c6;" horiz-adv-x="972" d="M82 1219l287 276h217l286 -276l-110 -125l-285 170l-287 -170z" />
<glyph unicode="&#x2dc;" horiz-adv-x="972" d="M82 1171q4 8 14 36t19 42q49 102 107.5 146.5t146.5 44.5q94 0 198 -66q76 -51 135 -51q63 0 101 47q14 16 24 39l84 -57q-2 -4 -32 -72q-47 -102 -103.5 -149.5t-154.5 -47.5q-92 0 -199 66q-82 51 -133 51q-63 0 -99 -43q-23 -35 -26 -43z" />
<glyph unicode="&#x2000;" horiz-adv-x="1091" />
<glyph unicode="&#x2001;" horiz-adv-x="2185" />
<glyph unicode="&#x2002;" horiz-adv-x="1091" />
<glyph unicode="&#x2003;" horiz-adv-x="2185" />
<glyph unicode="&#x2004;" horiz-adv-x="727" />
<glyph unicode="&#x2005;" horiz-adv-x="544" />
<glyph unicode="&#x2006;" horiz-adv-x="362" />
<glyph unicode="&#x2007;" horiz-adv-x="362" />
<glyph unicode="&#x2008;" horiz-adv-x="272" />
<glyph unicode="&#x2009;" horiz-adv-x="436" />
<glyph unicode="&#x200a;" horiz-adv-x="120" />
<glyph unicode="&#x2010;" horiz-adv-x="985" d="M160 401v420h665v-420h-665z" />
<glyph unicode="&#x2011;" horiz-adv-x="985" d="M160 401v420h665v-420h-665z" />
<glyph unicode="&#x2012;" horiz-adv-x="985" d="M160 401v420h665v-420h-665z" />
<glyph unicode="&#x2013;" horiz-adv-x="1478" d="M229 463v274h1033v-274h-1033z" />
<glyph unicode="&#x2014;" horiz-adv-x="1959" d="M59 463v272h1842v-272h-1842z" />
<glyph unicode="&#x2018;" horiz-adv-x="700" d="M109 1169q0 193 134 300.5t373 107.5v-162q-74 0 -134 -27.5t-60 -70.5q0 -18 57 -53q106 -68 107 -160q0 -88 -61.5 -145.5t-164.5 -57.5q-106 0 -178.5 76.5t-72.5 191.5z" />
<glyph unicode="&#x2019;" horiz-adv-x="700" d="M84 926v164q72 0 133.5 27.5t61.5 68.5q0 20 -58 55q-106 68 -106 160q0 88 61.5 145.5t163.5 57.5q106 0 179 -77t73 -192q0 -195 -134 -302t-374 -107z" />
<glyph unicode="&#x201a;" horiz-adv-x="700" d="M84 -96q72 0 133.5 27.5t61.5 68.5q0 20 -58 55q-106 63 -106 158q0 90 61.5 146.5t163.5 56.5q106 0 179 -77t73 -192q0 -193 -134 -300t-374 -107v164z" />
<glyph unicode="&#x201c;" horiz-adv-x="1292" d="M109 1169q0 193 134 300.5t373 107.5v-162q-74 0 -134 -27.5t-60 -70.5q0 -18 57 -53q106 -68 107 -160q0 -88 -61.5 -145.5t-164.5 -57.5q-106 0 -178.5 76.5t-72.5 191.5zM709 1169q0 193 134 300.5t374 107.5v-162q-74 0 -134.5 -27.5t-60.5 -70.5q0 -16 55 -53 q109 -68 109 -160q0 -88 -61.5 -145.5t-166.5 -57.5q-106 0 -177.5 76.5t-71.5 191.5z" />
<glyph unicode="&#x201d;" horiz-adv-x="1292" d="M76 926v164q74 0 134 27.5t60 68.5q0 20 -57 55q-106 68 -107 160q0 88 61.5 145.5t164.5 57.5q106 0 179 -77t73 -192q0 -195 -134 -302t-374 -107zM676 926v164q72 0 133 27.5t61 68.5q0 16 -57 55q-106 68 -106 160q0 88 61 145.5t164 57.5q106 0 179 -78t73 -191 q0 -195 -134 -302t-374 -107z" />
<glyph unicode="&#x201e;" horiz-adv-x="1292" d="M76 -96q74 0 134 27.5t60 68.5q0 20 -57 55q-106 63 -107 158q0 90 61.5 146.5t164.5 56.5q106 0 179 -77t73 -192q0 -193 -134.5 -300t-373.5 -107v164zM676 -96q72 0 133 27.5t61 68.5q0 23 -57 55q-106 63 -106 158q0 90 61 146.5t164 56.5q106 0 179 -78t73 -191 q0 -193 -134.5 -300t-373.5 -107v164z" />
<glyph unicode="&#x2022;" horiz-adv-x="1495" d="M213 664q0 219 155.5 374.5t376.5 155.5q219 0 375 -155.5t156 -374.5q0 -221 -155.5 -377t-375.5 -156q-221 0 -376.5 156t-155.5 377z" />
<glyph unicode="&#x2026;" horiz-adv-x="2549" d="M178 235.5q0 106.5 76 181.5t182.5 75t181 -75t74.5 -181.5t-74.5 -180t-181.5 -73.5q-109 0 -183.5 73.5t-74.5 180zM1030 235.5q0 106.5 75 181.5t181.5 75t181 -75t74.5 -181.5t-74.5 -180t-181 -73.5t-181.5 73.5t-75 180zM1880 235.5q0 106.5 75 181.5t181.5 75 t181 -75t74.5 -181.5t-74.5 -180t-181 -73.5t-181.5 73.5t-75 180z" />
<glyph unicode="&#x202f;" horiz-adv-x="436" />
<glyph unicode="&#x2039;" horiz-adv-x="968" d="M104 504v129l775 459v-158l-367 -367l367 -364v-156z" />
<glyph unicode="&#x203a;" horiz-adv-x="968" d="M96 47v156l369 364l-369 367v158l778 -459v-129z" />
<glyph unicode="&#x205f;" horiz-adv-x="544" />
<glyph unicode="&#x2122;" horiz-adv-x="2103" d="M72 1235v342h827v-342h-139v90q0 123 -109 123h-49v-506q0 -86 55 -86h72v-137h-487v137h67q59 0 60 86v506h-52q-106 0 -106 -123v-90h-139zM905 719v137h53q20 0 39 21.5t19 64.5v412q0 88 -58 88h-34v135h460l138 -487l129 487h405v-135h-33q-31 0 -45 -18.5 t-14 -69.5v-412q0 -86 59 -86h33v-137h-411v137h26q55 0 55 86v475l-202 -698h-150l-203 692v-469q0 -47 17.5 -66.5t38.5 -19.5h51v-137h-373z" />
<glyph unicode="&#xe000;" horiz-adv-x="995" d="M0 995h995v-995h-995v995z" />
<glyph unicode="&#xfb01;" horiz-adv-x="1486" d="M35 0v195h133q37 0 49 16t12 59v537h-180v188h111q78 0 78 92v41q0 489 553 490q246 0 367.5 -98.5t121.5 -245.5q0 -117 -67.5 -175.5t-182.5 -58.5q-102 0 -164.5 46.5t-62.5 138.5q0 43 23.5 82t60.5 57q-4 6 -12.5 19.5t-13.5 19.5t-15 15t-20.5 14.5t-27 8.5 t-36.5 3q-74 0 -107.5 -57.5t-33.5 -137.5v-254h682v-727q0 -47 7 -60t42 -13h100v-195h-643v195h61q31 0 36 13t5 60v467q0 41 -12 56.5t-49 15.5h-229v-524q0 -53 13 -70.5t56 -17.5h47v-195h-702z" />
<glyph unicode="&#xfb02;" horiz-adv-x="1480" d="M35 0v195h133q35 0 48 16t13 59v537h-180v188h105q84 0 84 80v53q0 244 140 367t388 123q184 0 283 -41h254v-1282v-21q0 -53 7 -66t46 -13h96v-195h-653v195h57q23 0 34 1t16 14t5 20v40v795q-41 6 -75.5 53t-34.5 103q0 96 86 145q-27 78 -121 78q-84 0 -114.5 -58.5 t-30.5 -179.5v-211h196v-188h-196v-526q0 -47 15 -66.5t56 -19.5h51v-195h-708z" />
<glyph unicode="&#xfb03;" horiz-adv-x="2625" d="M1860 807v188h573v-733q0 -68 80 -67h78v-195h-727v195h104q33 0 47.5 12t14.5 51v459q0 39 -21.5 64.5t-58.5 25.5h-90zM1948 1351.5q0 108.5 76.5 185.5t185 77t185.5 -77t77 -185.5t-77 -185t-185.5 -76.5t-185 76.5t-76.5 185zM948 0v195h137q59 0 59 57v555h-180 v188h119q31 0 50.5 20.5t19.5 53.5v59q0 248 138 366t355 118q207 0 313.5 -87t106.5 -216q0 -109 -58.5 -172.5t-152.5 -63.5q-86 0 -139 47t-53 117t61 111q16 10 16 32q0 51 -88 52q-45 0 -74.5 -30t-29.5 -83v-324h213v-188h-213v-535q0 -45 23.5 -61t70.5 -16h150v-195 h-844zM33 0v195h137q59 0 59 57v555h-180v188h119q31 0 50.5 20.5t19.5 53.5v59q0 248 138 366t355 118q207 0 313.5 -87t106.5 -216q0 -109 -58.5 -172.5t-152.5 -63.5q-86 0 -139 47t-53 117t61 111q16 10 16 32q0 51 -88 52q-45 0 -74.5 -30t-29.5 -83v-324h213v-188 h-213v-535q0 -45 23.5 -61t70.5 -16h150v-195h-844z" />
<glyph unicode="&#xfb04;" horiz-adv-x="2664" d="M1864 0v195h123q37 0 48 13t11 48v1069q0 57 -68 57h-96v195h570v-1315q0 -41 15 -54t54 -13h109v-195h-766zM948 0v195h137q59 0 59 57v555h-180v188h119q31 0 50.5 20.5t19.5 53.5v59q0 248 138 366t355 118q207 0 313.5 -87t106.5 -216q0 -109 -58.5 -172.5 t-152.5 -63.5q-86 0 -139 47t-53 117t61 111q16 10 16 32q0 51 -88 52q-45 0 -74.5 -30t-29.5 -83v-324h213v-188h-213v-535q0 -45 23.5 -61t70.5 -16h150v-195h-844zM33 0v195h137q59 0 59 57v555h-180v188h119q31 0 50.5 20.5t19.5 53.5v59q0 248 138 366t355 118 q207 0 313.5 -87t106.5 -216q0 -109 -58.5 -172.5t-152.5 -63.5q-86 0 -139 47t-53 117t61 111q16 10 16 32q0 51 -88 52q-45 0 -74.5 -30t-29.5 -83v-324h213v-188h-213v-535q0 -45 23.5 -61t70.5 -16h150v-195h-844z" />
</font>
</defs>
</svg>
